<svg data-v-423bf9ae="" xmlns="http://www.w3.org/2000/svg" viewBox="0 0 318 90" class="iconLeftSlogan"><!----><!----><!----><g data-v-423bf9ae="" id="6dc5d2a3-d221-4078-842a-d69aa316501e" fill="#283543" transform="matrix(2.1897810523844954,0,0,2.1897810523844954,109.88763308470462,1.6204387149036457)"><path d="M6.17 9.52L6.17 9.52L6.17 9.52Q6.29 9.79 6.50 10.30L6.50 10.30L6.50 10.30Q6.71 10.82 6.94 11.35L6.94 11.35L6.94 11.35Q7.17 11.89 7.39 12.29L7.39 12.29L7.39 12.29Q7.62 12.70 7.77 12.73L7.77 12.73L7.77 12.73Q7.35 12.96 6.90 13.30L6.90 13.30L6.90 13.30Q6.44 13.64 6.10 14L6.10 14L6.10 14Q6.03 13.69 5.85 13.14L5.85 13.14L5.85 13.14Q5.67 12.59 5.36 11.93L5.36 11.93L5.36 11.93Q5.10 12.19 4.69 12.55L4.69 12.55L4.69 12.55Q4.28 12.91 3.82 13.23L3.82 13.23L3.82 13.23Q3.36 13.55 2.86 13.78L2.86 13.78L2.86 13.78Q2.37 14 1.92 14L1.92 14L1.92 14Q1.60 14 1.25 13.91L1.25 13.91L1.25 13.91Q0.91 13.82 0.63 13.64L0.63 13.64L0.63 13.64Q0.35 13.47 0.18 13.22L0.18 13.22L0.18 13.22Q0 12.96 0 12.64L0 12.64L0 12.64Q0 12.25 0.41 11.80L0.41 11.80L0.41 11.80Q0.81 11.35 1.41 10.91L1.41 10.91L1.41 10.91Q2.02 10.47 2.72 10.05L2.72 10.05L2.72 10.05Q3.42 9.63 4.00 9.27L4.00 9.27L4.00 9.27Q3.57 8.72 3.19 8.48L3.19 8.48L3.19 8.48Q2.80 8.23 2.34 8.23L2.34 8.23L2.34 8.23Q2.14 8.23 1.83 8.34L1.83 8.34L1.83 8.34Q1.51 8.46 1.22 8.60L1.22 8.60L1.22 8.60Q0.85 8.75 0.49 8.95L0.49 8.95L0.49 8.95Q1.27 8.41 2.00 7.98L2.00 7.98L2.00 7.98Q2.31 7.80 2.63 7.63L2.63 7.63L2.63 7.63Q2.95 7.46 3.25 7.32L3.25 7.32L3.25 7.32Q3.56 7.18 3.81 7.10L3.81 7.10L3.81 7.10Q4.07 7.01 4.26 7.01L4.26 7.01L4.26 7.01Q4.61 7.01 4.91 7.31L4.91 7.31L4.91 7.31Q5.21 7.62 5.45 8.03L5.45 8.03L5.45 8.03Q5.70 8.44 5.87 8.86L5.87 8.86L5.87 8.86Q6.05 9.28 6.17 9.52ZM3.43 12.64L3.43 12.64L3.43 12.64Q3.77 12.64 4.07 12.54L4.07 12.54L4.07 12.54Q4.38 12.45 4.61 12.26L4.61 12.26L4.61 12.26Q4.84 12.08 4.98 11.83L4.98 11.83L4.98 11.83Q5.12 11.58 5.12 11.28L5.12 11.28L5.12 11.28Q5.01 11.10 4.89 10.88L4.89 10.88L4.89 10.88Q4.76 10.67 4.65 10.47L4.65 10.47L4.65 10.47Q4.54 10.22 4.42 9.99L4.42 9.99L4.42 9.99Q4.30 9.76 4.17 9.60L4.17 9.60L4.17 9.60Q3.86 9.72 3.42 9.92L3.42 9.92L3.42 9.92Q2.98 10.12 2.58 10.39L2.58 10.39L2.58 10.39Q2.17 10.67 1.88 10.99L1.88 10.99L1.88 10.99Q1.60 11.31 1.60 11.66L1.60 11.66L1.60 11.66Q1.60 11.86 1.74 12.03L1.74 12.03L1.74 12.03Q1.89 12.21 2.14 12.34L2.14 12.34L2.14 12.34Q2.38 12.47 2.72 12.56L2.72 12.56L2.72 12.56Q3.05 12.64 3.43 12.64ZM14.01 6.93L14.01 6.93L14.01 6.93Q14.45 6.93 14.90 7.12L14.90 7.12L14.90 7.12Q15.34 7.31 15.69 7.67L15.69 7.67L15.69 7.67Q16.04 8.04 16.27 8.55L16.27 8.55L16.27 8.55Q16.49 9.07 16.49 9.72L16.49 9.72L16.49 9.72Q16.49 10.19 16.27 10.70L16.27 10.70L16.27 10.70Q16.06 11.20 15.68 11.68L15.68 11.68L15.68 11.68Q15.30 12.17 14.81 12.59L14.81 12.59L14.81 12.59Q14.32 13.01 13.78 13.33L13.78 13.33L13.78 13.33Q13.23 13.65 12.66 13.83L12.66 13.83L12.66 13.83Q12.10 14.01 11.58 14.01L11.58 14.01L11.58 14.01Q10.78 14.01 10.19 13.80L10.19 13.80L10.19 13.80Q9.59 13.59 9.31 13.36L9.31 13.36L9.31 13.36Q9.42 13.12 9.46 12.48L9.46 12.48L9.46 12.48Q9.49 11.84 9.48 10.97L9.48 10.97L9.48 10.97Q9.48 10.09 9.46 9.06L9.46 9.06L9.46 9.06Q9.44 8.02 9.44 6.97L9.44 6.97L9.44 6.97Q9.44 4.84 9.36 3.04L9.36 3.04L9.36 3.04Q9.28 1.23 9.17 0.01L9.17 0.01L9.17 0.01Q10.05 0.01 10.67-0.20L10.67-0.20L10.67-0.20Q11.28-0.42 11.75-0.74L11.75-0.74L11.75-0.74Q11.59-0.46 11.48-0.25L11.48-0.25L11.48-0.25Q11.37-0.03 11.30 0.15L11.30 0.15L11.30 0.15Q11.13 0.62 11.05 1.34L11.05 1.34L11.05 1.34Q10.96 2.07 10.92 2.97L10.92 2.97L10.92 2.97Q10.88 3.86 10.87 4.89L10.87 4.89L10.87 4.89Q10.86 5.91 10.86 6.97L10.86 6.97L10.86 6.97Q10.86 9.06 10.94 10.29L10.94 10.29L10.94 10.29Q11.02 11.52 11.05 12.12L11.05 12.12L11.05 12.12Q12.11 12.63 12.83 12.71L12.83 12.71L12.83 12.71Q13.55 12.78 14 12.56L14 12.56L14 12.56Q14.45 12.35 14.64 11.89L14.64 11.89L14.64 11.89Q14.84 11.44 14.84 10.85L14.84 10.85L14.84 10.85Q14.84 10.16 14.62 9.67L14.62 9.67L14.62 9.67Q14.41 9.17 14.06 8.84L14.06 8.84L14.06 8.84Q13.72 8.51 13.30 8.36L13.30 8.36L13.30 8.36Q12.88 8.20 12.47 8.20L12.47 8.20L12.47 8.20Q12.18 8.20 11.94 8.27L11.94 8.27L11.94 8.27Q11.69 8.33 11.49 8.40L11.49 8.40L11.49 8.40Q11.27 8.48 11.09 8.58L11.09 8.58L11.09 8.58Q11.59 8.12 12.11 7.76L12.11 7.76L12.11 7.76Q12.56 7.45 13.06 7.19L13.06 7.19L13.06 7.19Q13.57 6.93 14.01 6.93ZM21.78 7.53L21.78 7.53L21.78 7.53Q22.23 7.53 22.68 7.69L22.68 7.69L22.68 7.69Q23.13 7.84 23.48 8.16L23.48 8.16L23.48 8.16Q23.84 8.48 24.07 8.99L24.07 8.99L24.07 8.99Q24.29 9.49 24.29 10.18L24.29 10.18L24.29 10.18Q24.29 11.12 24.01 11.82L24.01 11.82L24.01 11.82Q23.73 12.52 23.41 12.99L23.41 12.99L23.41 12.99Q23.02 13.55 22.53 13.93L22.53 13.93L22.53 13.93Q22.68 13.71 22.82 13.36L22.82 13.36L22.82 13.36Q22.93 13.06 23.02 12.63L23.02 12.63L23.02 12.63Q23.11 12.19 23.11 11.58L23.11 11.58L23.11 11.58Q23.11 10.78 22.84 10.21L22.84 10.21L22.84 10.21Q22.57 9.63 22.15 9.26L22.15 9.26L22.15 9.26Q21.73 8.89 21.22 8.72L21.22 8.72L21.22 8.72Q20.72 8.55 20.26 8.55L20.26 8.55L20.26 8.55Q19.81 8.55 19.61 8.94L19.61 8.94L19.61 8.94Q19.40 9.32 19.33 9.97L19.33 9.97L19.33 9.97Q19.26 10.63 19.28 11.48L19.28 11.48L19.28 11.48Q19.29 12.33 19.29 13.27L19.29 13.27L19.29 13.27Q19.01 13.38 18.70 13.62L18.70 13.62L18.70 13.62Q18.40 13.85 18.12 14L18.12 14L18.12 14Q18.16 13.45 18.16 12.66L18.16 12.66L18.16 12.66Q18.16 11.86 18.15 10.93L18.15 10.93L18.15 10.93Q18.14 10.00 18.13 8.99L18.13 8.99L18.13 8.99Q18.12 7.98 18.12 7.01L18.12 7.01L18.12 7.01Q18.12 5.07 18.09 3.30L18.09 3.30L18.09 3.30Q18.06 1.54 17.89 0.06L17.89 0.06L17.89 0.06Q18.72 0.06 19.30-0.18L19.30-0.18L19.30-0.18Q19.88-0.41 20.33-0.69L20.33-0.69L20.33-0.69Q20.09-0.46 19.98-0.25L19.98-0.25L19.98-0.25Q19.87-0.04 19.81 0.13L19.81 0.13L19.81 0.13Q19.67 0.57 19.60 1.34L19.60 1.34L19.60 1.34Q19.53 2.10 19.50 3.04L19.50 3.04L19.50 3.04Q19.46 3.99 19.45 5.02L19.45 5.02L19.45 5.02Q19.45 6.05 19.45 7.01L19.45 7.01L19.45 8.55L19.45 8.55Q19.75 8.27 20.12 8.05L20.12 8.05L20.12 8.05Q20.44 7.85 20.87 7.69L20.87 7.69L20.87 7.69Q21.29 7.53 21.78 7.53ZM27.94 5.24L27.94 5.24L27.94 5.24Q27.76 5.38 27.58 5.53L27.58 5.53L27.58 5.53Q27.43 5.67 27.24 5.85L27.24 5.85L27.24 5.85Q27.05 6.03 26.89 6.23L26.89 6.23L26.89 6.23Q26.74 5.98 26.57 5.80L26.57 5.80L26.57 5.80Q26.40 5.61 26.25 5.49L26.25 5.49L26.25 5.49Q26.08 5.33 25.91 5.24L25.91 5.24L25.91 5.24Q26.10 5.10 26.26 4.94L26.26 4.94L26.26 4.94Q26.42 4.80 26.59 4.62L26.59 4.62L26.59 4.62Q26.75 4.44 26.89 4.23L26.89 4.23L26.89 4.23Q27.05 4.47 27.23 4.65L27.23 4.65L27.23 4.65Q27.41 4.84 27.57 4.97L27.57 4.97L27.57 4.97Q27.75 5.12 27.94 5.24ZM25.69 8.12L25.69 8.12L25.69 8.12Q26.03 7.98 26.33 7.88L26.33 7.88L26.33 7.88Q26.63 7.77 26.90 7.65L26.90 7.65L26.90 7.65Q27.17 7.53 27.43 7.38L27.43 7.38L27.43 7.38Q27.69 7.24 27.94 7.01L27.94 7.01L27.94 7.01Q28.06 7.39 28.04 7.93L28.04 7.93L28.04 7.93Q28.03 8.47 27.98 9.06L27.98 9.06L27.98 9.06Q27.93 9.66 27.92 10.26L27.92 10.26L27.92 10.26Q27.90 10.86 28.02 11.35L28.02 11.35L28.02 11.35Q28.14 11.84 28.44 12.17L28.44 12.17L28.44 12.17Q28.74 12.50 29.34 12.56L29.34 12.56L29.34 12.56Q28.74 12.95 28.31 13.30L28.31 13.30L28.31 13.30Q27.89 13.65 27.47 14.01L27.47 14.01L27.47 14.01Q27.34 13.96 27.19 13.89L27.19 13.89L27.19 13.89Q27.03 13.82 26.89 13.69L26.89 13.69L26.89 13.69Q26.75 13.55 26.65 13.35L26.65 13.35L26.65 13.35Q26.54 13.15 26.53 12.82L26.53 12.82L26.53 12.82Q26.54 11.87 26.57 11.01L26.57 11.01L26.57 11.01Q26.60 10.15 26.54 9.50L26.54 9.50L26.54 9.50Q26.49 8.85 26.30 8.48L26.30 8.48L26.30 8.48Q26.11 8.11 25.69 8.12ZM35.25 11.66L35.25 11.66L35.25 11.66Q35.08 11.77 34.87 11.98L34.87 11.98L34.87 11.98Q34.66 12.19 34.41 12.40L34.41 12.40L34.41 12.40Q34.16 12.60 33.85 12.75L33.85 12.75L33.85 12.75Q33.54 12.91 33.19 12.91L33.19 12.91L33.19 12.91Q32.80 12.91 32.38 12.71L32.38 12.71L32.38 12.71Q31.96 12.52 31.61 12.17L31.61 12.17L31.61 12.17Q31.26 11.83 31.04 11.35L31.04 11.35L31.04 11.35Q30.81 10.88 30.81 10.32L30.81 10.32L30.81 10.32Q30.81 9.86 30.98 9.48L30.98 9.48L30.98 9.48Q31.15 9.11 31.42 8.82L31.42 8.82L31.42 8.82Q31.68 8.53 32.02 8.27L32.02 8.27L32.02 8.27Q32.37 8.02 32.73 7.78L32.73 7.78L32.73 7.78Q33.31 7.42 33.78 7.21L33.78 7.21L33.78 7.21Q34.26 7 34.58 7L34.58 7L34.58 7Q34.97 7 35.40 7.13L35.40 7.13L35.40 7.13Q35.83 7.27 36.31 7.38L36.31 7.38L36.31 7.38Q36.79 7.49 37.32 7.50L37.32 7.50L37.32 7.50Q37.86 7.52 38.44 7.29L38.44 7.29L38.44 7.29Q38.25 7.49 38.04 7.60L38.04 7.60L38.04 7.60Q37.83 7.71 37.62 7.80L37.62 7.80L37.62 7.80Q37.41 7.88 37.20 7.97L37.20 7.97L37.20 7.97Q37.00 8.05 36.81 8.19L36.81 8.19L36.81 8.19Q36.65 9.67 36.77 10.87L36.77 10.87L36.77 10.87Q36.89 12.07 37.19 13.05L37.19 13.05L37.19 13.05Q37.49 14.03 37.93 14.83L37.93 14.83L37.93 14.83Q38.36 15.62 38.84 16.32L38.84 16.32L38.84 16.32Q39.31 17.01 39.78 17.63L39.78 17.63L39.78 17.63Q40.25 18.26 40.63 18.88L40.63 18.88L40.63 18.88Q41.01 19.50 41.24 20.15L41.24 20.15L41.24 20.15Q41.47 20.80 41.47 21.57L41.47 21.57L41.47 21.57Q41.47 22.51 41.04 23.41L41.04 23.41L41.04 23.41Q40.61 24.32 39.81 25.02L39.81 25.02L39.81 25.02Q39.00 25.73 37.85 26.17L37.85 26.17L37.85 26.17Q36.69 26.60 35.25 26.60L35.25 26.60L35.25 26.60Q34.08 26.60 33.24 26.40L33.24 26.40L33.24 26.40Q32.40 26.19 31.84 25.94L31.84 25.94L31.84 25.94Q31.18 25.65 30.74 25.27L30.74 25.27L30.74 25.27Q31.25 25.61 31.92 25.86L31.92 25.86L31.92 25.86Q32.51 26.08 33.33 26.26L33.33 26.26L33.33 26.26Q34.16 26.45 35.25 26.45L35.25 26.45L35.25 26.45Q36.18 26.45 37.06 26.24L37.06 26.24L37.06 26.24Q37.95 26.04 38.65 25.60L38.65 25.60L38.65 25.60Q39.35 25.16 39.79 24.46L39.79 24.46L39.79 24.46Q40.22 23.76 40.22 22.76L40.22 22.76L40.22 22.76Q40.22 21.97 39.89 21.27L39.89 21.27L39.89 21.27Q39.56 20.57 39.05 19.86L39.05 19.86L39.05 19.86Q38.54 19.15 37.93 18.37L37.93 18.37L37.93 18.37Q37.32 17.58 36.77 16.62L36.77 16.62L36.77 16.62Q36.22 15.65 35.80 14.44L35.80 14.44L35.80 14.44Q35.38 13.23 35.25 11.66ZM35.18 10.47L35.18 10.47L35.18 10.47Q35.18 9.81 35.22 9.36L35.22 9.36L35.22 9.36Q35.25 8.90 35.48 8.41L35.48 8.41L35.48 8.41Q35.31 8.33 35.01 8.24L35.01 8.24L35.01 8.24Q34.72 8.15 34.36 8.09L34.36 8.09L34.36 8.09Q34.01 8.02 33.61 8.00L33.61 8.00L33.61 8.00Q33.21 7.98 32.82 8.04L32.82 8.04L32.82 8.04Q32.48 8.15 32.35 8.44L32.35 8.44L32.35 8.44Q32.23 8.74 32.23 9.07L32.23 9.07L32.23 9.07Q32.23 9.81 32.54 10.34L32.54 10.34L32.54 10.34Q32.86 10.86 33.32 11.17L33.32 11.17L33.32 11.17Q33.78 11.48 34.31 11.56L34.31 11.56L34.31 11.56Q34.83 11.65 35.25 11.51L35.25 11.51L35.25 11.51Q35.25 11.28 35.22 11.02L35.22 11.02L35.22 11.02Q35.18 10.75 35.18 10.47ZM46.34 7.88L46.34 7.88L46.34 7.88Q46.93 7.69 47.49 7.52L47.49 7.52L47.49 7.52Q47.98 7.36 48.50 7.23L48.50 7.23L48.50 7.23Q49.01 7.10 49.39 7.03L49.39 7.03L49.39 7.03Q48.40 8.64 47.50 10.34L47.50 10.34L47.50 10.34Q46.61 12.04 45.81 13.72L45.81 13.72L45.81 13.72Q45.01 15.40 44.31 17.01L44.31 17.01L44.31 17.01Q43.61 18.62 43.04 20.06L43.04 20.06L43.04 20.06Q41.68 23.44 40.63 26.66L40.63 26.66L40.63 26.66Q41.47 23.86 42.24 21.38L42.24 21.38L42.24 21.38Q42.56 20.33 42.90 19.24L42.90 19.24L42.90 19.24Q43.25 18.14 43.56 17.15L43.56 17.15L43.56 17.15Q43.88 16.16 44.16 15.34L44.16 15.34L44.16 15.34Q44.44 14.52 44.63 13.99L44.63 13.99L44.63 13.99Q44.37 13.47 44.04 12.86L44.04 12.86L44.04 12.86Q43.72 12.25 43.38 11.65L43.38 11.65L43.38 11.65Q43.04 11.05 42.69 10.49L42.69 10.49L42.69 10.49Q42.35 9.93 42.05 9.50L42.05 9.50L42.05 9.50Q41.75 9.07 41.51 8.81L41.51 8.81L41.51 8.81Q41.27 8.55 41.15 8.55L41.15 8.55L41.15 8.55Q41.05 8.55 40.96 8.57L40.96 8.57L40.96 8.57Q40.87 8.58 40.80 8.61L40.80 8.61L40.80 8.61Q40.71 8.64 40.63 8.65L40.63 8.65L40.63 8.65Q40.80 8.40 41.02 8.10L41.02 8.10L41.02 8.10Q41.24 7.80 41.48 7.54L41.48 7.54L41.48 7.54Q41.72 7.28 41.94 7.10L41.94 7.10L41.94 7.10Q42.15 6.93 42.29 6.93L42.29 6.93L42.29 6.93Q42.46 6.93 42.76 7.29L42.76 7.29L42.76 7.29Q43.05 7.64 43.47 8.33L43.47 8.33L43.47 8.33Q43.89 9.02 44.42 10.01L44.42 10.01L44.42 10.01Q44.95 11.00 45.58 12.26L45.58 12.26L45.58 12.26Q45.98 11.51 46.35 10.77L46.35 10.77L46.35 10.77Q46.72 10.04 46.96 9.44L46.96 9.44L46.96 9.44Q47.19 8.85 47.24 8.45L47.24 8.45L47.24 8.45Q47.28 8.05 47.01 7.98L47.01 7.98L47.01 7.98Q46.90 7.95 46.78 7.93L46.78 7.93L46.78 7.93Q46.66 7.91 46.56 7.90L46.56 7.90L46.56 7.90Q46.44 7.88 46.34 7.88ZM56.27 9.52L56.27 9.52L56.27 9.52Q56.38 9.79 56.59 10.30L56.59 10.30L56.59 10.30Q56.80 10.82 57.03 11.35L57.03 11.35L57.03 11.35Q57.26 11.89 57.48 12.29L57.48 12.29L57.48 12.29Q57.71 12.70 57.86 12.73L57.86 12.73L57.86 12.73Q57.44 12.96 56.99 13.30L56.99 13.30L56.99 13.30Q56.53 13.64 56.20 14L56.20 14L56.20 14Q56.13 13.69 55.94 13.14L55.94 13.14L55.94 13.14Q55.76 12.59 55.45 11.93L55.45 11.93L55.45 11.93Q55.19 12.19 54.78 12.55L54.78 12.55L54.78 12.55Q54.38 12.91 53.91 13.23L53.91 13.23L53.91 13.23Q53.45 13.55 52.95 13.78L52.95 13.78L52.95 13.78Q52.46 14 52.01 14L52.01 14L52.01 14Q51.69 14 51.34 13.91L51.34 13.91L51.34 13.91Q51.00 13.82 50.72 13.64L50.72 13.64L50.72 13.64Q50.44 13.47 50.27 13.22L50.27 13.22L50.27 13.22Q50.09 12.96 50.09 12.64L50.09 12.64L50.09 12.64Q50.09 12.25 50.50 11.80L50.50 11.80L50.50 11.80Q50.90 11.35 51.51 10.91L51.51 10.91L51.51 10.91Q52.11 10.47 52.81 10.05L52.81 10.05L52.81 10.05Q53.51 9.63 54.10 9.27L54.10 9.27L54.10 9.27Q53.66 8.72 53.28 8.48L53.28 8.48L53.28 8.48Q52.89 8.23 52.43 8.23L52.43 8.23L52.43 8.23Q52.23 8.23 51.92 8.34L51.92 8.34L51.92 8.34Q51.60 8.46 51.31 8.60L51.31 8.60L51.31 8.60Q50.95 8.75 50.58 8.95L50.58 8.95L50.58 8.95Q51.37 8.41 52.09 7.98L52.09 7.98L52.09 7.98Q52.40 7.80 52.72 7.63L52.72 7.63L52.72 7.63Q53.05 7.46 53.35 7.32L53.35 7.32L53.35 7.32Q53.65 7.18 53.91 7.10L53.91 7.10L53.91 7.10Q54.17 7.01 54.35 7.01L54.35 7.01L54.35 7.01Q54.70 7.01 55.00 7.31L55.00 7.31L55.00 7.31Q55.30 7.62 55.55 8.03L55.55 8.03L55.55 8.03Q55.79 8.44 55.96 8.86L55.96 8.86L55.96 8.86Q56.14 9.28 56.27 9.52ZM53.52 12.64L53.52 12.64L53.52 12.64Q53.86 12.64 54.17 12.54L54.17 12.54L54.17 12.54Q54.47 12.45 54.70 12.26L54.70 12.26L54.70 12.26Q54.94 12.08 55.08 11.83L55.08 11.83L55.08 11.83Q55.22 11.58 55.22 11.28L55.22 11.28L55.22 11.28Q55.10 11.10 54.98 10.88L54.98 10.88L54.98 10.88Q54.85 10.67 54.74 10.47L54.74 10.47L54.74 10.47Q54.63 10.22 54.51 9.99L54.51 9.99L54.51 9.99Q54.39 9.76 54.26 9.60L54.26 9.60L54.26 9.60Q53.96 9.72 53.52 9.92L53.52 9.92L53.52 9.92Q53.07 10.12 52.67 10.39L52.67 10.39L52.67 10.39Q52.26 10.67 51.98 10.99L51.98 10.99L51.98 10.99Q51.69 11.31 51.69 11.66L51.69 11.66L51.69 11.66Q51.69 11.86 51.84 12.03L51.84 12.03L51.84 12.03Q51.98 12.21 52.23 12.34L52.23 12.34L52.23 12.34Q52.47 12.47 52.81 12.56L52.81 12.56L52.81 12.56Q53.14 12.64 53.52 12.64ZM66.67 10.01L66.67 10.01L66.67 10.01Q66.67 11.00 66.34 11.75L66.34 11.75L66.34 11.75Q66.01 12.50 65.62 13.01L65.62 13.01L65.62 13.01Q65.16 13.59 64.57 14.01L64.57 14.01L64.57 14.01Q64.79 13.66 64.97 13.24L64.97 13.24L64.97 13.24Q65.13 12.88 65.25 12.42L65.25 12.42L65.25 12.42Q65.38 11.96 65.38 11.44L65.38 11.44L65.38 11.44Q65.38 10.81 65.13 10.22L65.13 10.22L65.13 10.22Q64.88 9.63 64.46 9.18L64.46 9.18L64.46 9.18Q64.04 8.72 63.48 8.44L63.48 8.44L63.48 8.44Q62.93 8.16 62.33 8.16L62.33 8.16L62.33 8.16Q62.03 8.16 61.75 8.23L61.75 8.23L61.75 8.23Q61.47 8.30 61.29 8.48L61.29 8.48L61.29 8.48Q61.29 8.78 61.27 9.27L61.27 9.27L61.27 9.27Q61.25 9.77 61.25 10.42L61.25 10.42L61.25 10.42Q61.25 11.06 61.29 11.82L61.29 11.82L61.29 11.82Q61.32 12.57 61.45 13.38L61.45 13.38L61.45 13.38Q60.96 13.38 60.47 13.58L60.47 13.58L60.47 13.58Q59.99 13.78 59.70 14.01L59.70 14.01L59.70 14.01Q59.71 13.75 59.74 13.24L59.74 13.24L59.74 13.24Q59.77 12.73 59.78 12.10L59.78 12.10L59.78 12.10Q59.79 11.48 59.79 10.82L59.79 10.82L59.79 10.82Q59.78 10.16 59.72 9.61L59.72 9.61L59.72 9.61Q59.67 9.06 59.56 8.68L59.56 8.68L59.56 8.68Q59.46 8.30 59.28 8.25L59.28 8.25L59.28 8.25Q59.04 8.15 58.80 8.15L58.80 8.15L58.80 8.15Q58.67 8.15 58.56 8.16L58.56 8.16L58.56 8.16Q59.04 7.85 59.47 7.60L59.47 7.60L59.47 7.60Q59.84 7.39 60.21 7.22L60.21 7.22L60.21 7.22Q60.59 7.04 60.80 7.04L60.80 7.04L60.80 7.04Q60.98 7.04 61.08 7.07L61.08 7.07L61.08 7.07Q61.18 7.10 61.23 7.21L61.23 7.21L61.23 7.21Q61.28 7.32 61.29 7.55L61.29 7.55L61.29 7.55Q61.29 7.77 61.29 8.16L61.29 8.16L61.29 8.16Q61.89 7.62 62.57 7.33L62.57 7.33L62.57 7.33Q63.25 7.04 63.85 7.04L63.85 7.04L63.85 7.04Q64.48 7.04 65.00 7.29L65.00 7.29L65.00 7.29Q65.52 7.55 65.89 7.96L65.89 7.96L65.89 7.96Q66.26 8.37 66.47 8.90L66.47 8.90L66.47 8.90Q66.67 9.44 66.67 10.01ZM76.55 0.55L76.55 0.55L76.55 0.55Q75.08 3.43 72.93 7.21L72.93 7.21L72.93 7.21Q70.06 12.36 69.17 13.29L69.17 13.29L69.17 13.29Q68.87 13.64 68.07 14.07L68.07 14.07L71.65 7.94L71.65 7.94Q73.61 4.55 74.93 1.67L74.93 1.67L74.93 1.67Q74.44 1.57 72.00 1.57L72.00 1.57L72.00 1.57Q69.40 1.57 68.88 1.89L68.88 1.89L68.88 1.41L68.88 1.41Q70.06 0.48 70.31 0.48L70.31 0.48L74.65 0.48L74.65 0.48Q74.98 0.48 75.61 0.51L75.61 0.51L75.61 0.51Q76.23 0.55 76.55 0.55ZM86.13 6.71L86.13 6.71L86.13 6.71Q86.13 8.50 85.40 10.21L85.40 10.21L85.40 10.21Q84.66 11.98 83.31 13.08L83.31 13.08L83.31 13.08Q82.14 14.07 81.41 14.07L81.41 14.07L81.41 14.07Q81.02 14.07 80.23 13.64L80.23 13.64L80.23 13.64Q79.03 13.02 78.44 11.14L78.44 11.14L78.44 11.14Q77.95 9.67 77.95 7.94L77.95 7.94L77.95 7.94Q77.95 5.36 78.96 3.26L78.96 3.26L78.96 3.26Q80.22 0.70 82.52 0.70L82.52 0.70L82.52 0.70Q84.57 0.70 85.46 2.77L85.46 2.77L85.46 2.77Q86.13 4.31 86.13 6.71ZM84.84 7.94L84.84 7.94L84.84 7.94Q84.84 5.77 84.08 4.17L84.08 4.17L84.08 4.17Q83.13 2.06 81.23 2.06L81.23 2.06L81.23 2.06Q80.11 2.06 79.59 4.03L79.59 4.03L79.59 4.03Q79.16 5.43 79.16 6.94L79.16 6.94L79.16 6.94Q79.16 8.81 80.02 10.46L80.02 10.46L80.02 10.46Q81.06 12.45 82.68 12.45L82.68 12.45L82.68 12.45Q84.84 12.45 84.84 7.94ZM94.68 4.44L94.68 4.44L94.68 4.44Q94.68 6.99 92.54 10.09L92.54 10.09L92.54 10.09Q90.66 12.85 88.35 14.45L88.35 14.45L88.35 14.04L88.35 14.04Q90.97 11.94 92.76 8.30L92.76 8.30L92.76 8.04L92.76 8.04Q92.18 8.37 91.50 8.74L91.50 8.74L91.50 8.74Q90.66 9.17 90.19 9.17L90.19 9.17L90.19 9.17Q89.08 9.17 88.26 7.78L88.26 7.78L88.26 7.78Q87.53 6.59 87.53 5.38L87.53 5.38L87.53 5.38Q87.53 3.57 88.66 2.06L88.66 2.06L88.66 2.06Q89.89 0.46 91.57 0.46L91.57 0.46L91.57 0.46Q93.11 0.46 93.93 1.71L93.93 1.71L93.93 1.71Q94.68 2.77 94.68 4.44ZM93.25 5.28L93.25 5.28L93.25 5.28Q93.25 3.91 92.60 2.77L92.60 2.77L92.60 2.77Q91.76 1.53 90.52 1.53L90.52 1.53L90.52 1.53Q89.68 1.53 89.18 2.48L89.18 2.48L89.18 2.48Q88.75 3.26 88.75 4.23L88.75 4.23L88.75 4.23Q88.75 5.54 89.64 6.72L89.64 6.72L89.64 6.72Q90.59 8.01 91.73 8.01L91.73 8.01L91.73 8.01Q92.76 8.01 93.09 7.13L93.09 7.13L93.09 7.13Q93.25 6.59 93.25 5.28Z"></path></g><defs data-v-423bf9ae=""><linearGradient data-v-423bf9ae="" gradientTransform="rotate(25)" id="6cc73ce2-7497-4b5c-abae-4f50859bd1e2" x1="0%" y1="0%" x2="100%" y2="0%"><stop data-v-423bf9ae="" offset="0%" style="stop-color: rgb(208, 233, 13); stop-opacity: 1;"></stop><stop data-v-423bf9ae="" offset="100%" style="stop-color: rgb(21, 54, 241); stop-opacity: 1;"></stop></linearGradient></defs><g data-v-423bf9ae="" id="e6674f30-b106-4c26-8b2e-015ea71c2806" transform="matrix(1.1235954200014706,0,0,1.1235954200014706,-4.487635893698716,-4.605616803640629)" stroke="none" fill="url(#6cc73ce2-7497-4b5c-abae-4f50859bd1e2)"><path d="M81.6 59.6c0-.1 0-.1.1-.2 1.6-4.2 2.6-8.8 2.7-13.6v-.9c0-22.1-17.9-40-40-40s-40 17.9-40 40c0 4.6.8 9 2.2 13.1C12 73.7 26.9 85 44.4 85c16.1 0 30-9.6 36.4-23.3 0-.1.1-.1.1-.2.2-.6.5-1.2.7-1.9zm-3.7-13.7v-1.1h-1.1v1.1h-2.5v-1.1h-1.1v1.1h-2.5v-1.1h-1.1v1.1h-2.9v2.9H48.4v-4.7H57v-3.7c.7-.2 1.3-.7 1.6-1.4h17.9c.3 1.2 1.3 2.2 2.5 2.4.1 1.2.2 2.3.2 3.5v.9h-1.3zM44.4 10.1c15.9 0 29.3 10.7 33.5 25.2-.1.1-.2.1-.3.2l-6.9-6.7v-.3H48.8V22h-5.4v6.5h-2.5V22h-5.4v6.5H33V22h-5.4v6.5h-5.1c-.2-1-1.2-1.8-2.3-1.8-1.3 0-2.3 1.1-2.3 2.4 0 1.1.8 2 1.8 2.3V34.7H39.6c.2 1 1.2 1.8 2.3 1.8 1.3 0 2.3-1.1 2.3-2.4s-1-2.4-2.3-2.4c-1.1 0-2 .8-2.3 1.8H20.7v-2.2c.9-.2 1.5-.9 1.7-1.7h31.4V32h13.3v-2.4H70l7 6.7c-.3.5-.5 1-.5 1.6H58.8c-.1-1.2-1.1-2.2-2.3-2.2-1.3 0-2.3 1.1-2.3 2.4 0 1.1.8 2 1.8 2.3V43H38.3c-.3-3.6-3.3-6.5-7-6.5s-6.7 2.9-7 6.5h-1.8v-2.5h-3.6v-1.8h-8.6v4h8.6v-1.1h2.5v4.3h-2.5v-1.1h-8.6v4h8.6V47h3.6V44.1h1.8c.3 3.6 3.3 6.5 7 6.5s6.7-2.9 7-6.5h9V49.9H66.7v4.3H44.1a3.4 3.4 0 0 0-3.4-3.2 3.4 3.4 0 0 0-3.4 3.2H23.9c-.2-1-1.2-1.8-2.3-1.8-1.3 0-2.3 1.1-2.3 2.4s1 2.4 2.3 2.4c1.1 0 2-.8 2.3-1.8h13.5c.4 1.5 1.7 2.5 3.3 2.5 1.6 0 2.9-1.1 3.3-2.5h7v2h2.5v-2h13.3v4.3h-54c-2.1-4.5-3.2-9.4-3.2-14.7-.1-19.3 15.5-34.9 34.8-34.9zm0 69.8c-13.6 0-25.4-7.8-31.1-19.2h29.4v6.4H48v-6.4h2.2v6.4h5.4v-6.4h2.2v6.4h5.4v-6.4h3.6v2.9h2.9v1.1h1.1v-1.1h2.5v1c-6.4 9.2-16.9 15.3-28.9 15.3z"></path></g><!----><g data-v-423bf9ae="" id="61cd5418-e43a-4c9d-9fc6-ea2422d6ed17" fill="#283543" transform="matrix(0.2085956856790312,0,0,0.2085956856790312,109.80837125494733,59.42844888995561)"><path d="M0.96 3.64L0.38 3.64L0.39 3.08L3.90 3.08L3.90 3.64L3.67 3.64L3.67 3.64Q3.12 3.64 2.95 3.73L2.95 3.73L2.95 3.73Q2.82 3.81 2.82 4.28L2.82 4.28L2.82 11.22L2.82 11.22Q2.82 11.68 2.93 11.77L2.93 11.77L2.93 11.77Q3.04 11.87 3.57 11.87L3.57 11.87L4.12 11.87L4.13 12.41L0.55 12.41L0.53 11.87L0.90 11.87L0.90 11.87Q1.46 11.87 1.57 11.77L1.57 11.77L1.57 11.77Q1.68 11.67 1.68 11.25L1.68 11.25L1.68 4.14L1.68 4.14Q1.68 3.77 1.58 3.71L1.58 3.71L1.58 3.71Q1.47 3.64 0.96 3.64L0.96 3.64ZM11.88 3.64L11.87 3.08L14.04 3.08L19.78 10.48L19.78 4.14L19.78 4.14Q19.78 3.81 19.62 3.72L19.62 3.72L19.62 3.72Q19.47 3.64 19.01 3.64L19.01 3.64L18.52 3.64L18.55 3.08L21.53 3.08L21.53 3.64L21.21 3.64L21.21 3.64Q20.74 3.64 20.59 3.75L20.59 3.75L20.59 3.75Q20.44 3.86 20.44 4.25L20.44 4.25L20.44 12.32L20.44 12.47L20.44 12.47Q20.44 12.52 20.43 12.57L20.43 12.57L20.43 12.57Q20.41 12.61 20.38 12.64L20.38 12.64L20.38 12.64Q20.36 12.65 20.31 12.65L20.31 12.65L20.12 12.65L20.06 12.65L20.03 12.65L20.00 12.64L20.00 12.64Q19.97 12.64 19.96 12.63L19.96 12.63L19.96 12.63Q19.95 12.61 19.95 12.60L19.95 12.60L19.95 12.60Q19.95 12.58 19.93 12.57L19.93 12.57L19.93 12.57Q19.91 12.54 19.88 12.50L19.88 12.50L19.88 12.50Q19.87 12.48 19.84 12.45L19.84 12.45L19.84 12.45Q19.82 12.41 19.81 12.40L19.81 12.40L13.71 4.56L13.77 11.22L13.77 11.22Q13.77 11.67 13.94 11.77L13.94 11.77L13.94 11.77Q14.10 11.87 14.81 11.87L14.81 11.87L15.05 11.87L15.05 12.41L12.11 12.41L12.11 11.87L12.53 11.87L12.53 11.87Q12.91 11.87 13.02 11.76L13.02 11.76L13.02 11.76Q13.11 11.66 13.12 11.25L13.12 11.25L13.12 3.80L12.97 3.64L11.88 3.64ZM29.28 3.64L29.26 3.08L31.44 3.08L37.17 10.48L37.17 4.14L37.17 4.14Q37.17 3.81 37.02 3.72L37.02 3.72L37.02 3.72Q36.87 3.64 36.41 3.64L36.41 3.64L35.92 3.64L35.94 3.08L38.92 3.08L38.92 3.64L38.60 3.64L38.60 3.64Q38.14 3.64 37.99 3.75L37.99 3.75L37.99 3.75Q37.84 3.86 37.84 4.25L37.84 4.25L37.84 12.32L37.84 12.47L37.84 12.47Q37.84 12.52 37.82 12.57L37.82 12.57L37.82 12.57Q37.81 12.61 37.78 12.64L37.78 12.64L37.78 12.64Q37.76 12.65 37.71 12.65L37.71 12.65L37.52 12.65L37.45 12.65L37.43 12.65L37.40 12.64L37.40 12.64Q37.37 12.64 37.36 12.63L37.36 12.63L37.36 12.63Q37.34 12.61 37.34 12.60L37.34 12.60L37.34 12.60Q37.34 12.58 37.33 12.57L37.33 12.57L37.33 12.57Q37.30 12.54 37.28 12.50L37.28 12.50L37.28 12.50Q37.26 12.48 37.24 12.45L37.24 12.45L37.24 12.45Q37.22 12.41 37.21 12.40L37.21 12.40L31.10 4.56L31.17 11.22L31.17 11.22Q31.17 11.67 31.34 11.77L31.34 11.77L31.34 11.77Q31.49 11.87 32.20 11.87L32.20 11.87L32.44 11.87L32.44 12.41L29.50 12.41L29.50 11.87L29.93 11.87L29.93 11.87Q30.30 11.87 30.41 11.76L30.41 11.76L30.41 11.76Q30.51 11.66 30.52 11.25L30.52 11.25L30.52 3.80L30.37 3.64L29.28 3.64ZM47.04 7.83L47.04 7.83L47.04 7.83Q47.04 6.62 47.45 5.68L47.45 5.68L47.45 5.68Q47.87 4.72 48.56 4.12L48.56 4.12L48.56 4.12Q49.25 3.51 50.11 3.19L50.11 3.19L50.11 3.19Q50.95 2.88 51.90 2.88L51.90 2.88L51.90 2.88Q53.16 2.88 54.21 3.40L54.21 3.40L54.21 3.40Q55.29 3.93 56 5.07L56 5.07L56 5.07Q56.70 6.17 56.70 7.75L56.70 7.75L56.70 7.75Q56.70 8.70 56.40 9.54L56.40 9.54L56.40 9.54Q56.09 10.38 55.48 11.10L55.48 11.10L55.48 11.10Q54.88 11.81 53.94 12.22L53.94 12.22L53.94 12.22Q52.98 12.63 51.79 12.64L51.79 12.64L51.79 12.64Q50.65 12.64 49.72 12.23L49.72 12.23L49.72 12.23Q48.78 11.83 48.22 11.14L48.22 11.14L48.22 11.14Q47.65 10.45 47.35 9.60L47.35 9.60L47.35 9.60Q47.04 8.72 47.04 7.83ZM48.30 7.38L48.30 7.38L48.30 7.38Q48.30 8.52 48.73 9.60L48.73 9.60L48.73 9.60Q49.14 10.64 50.07 11.33L50.07 11.33L50.07 11.33Q50.98 12.03 52.17 12.04L52.17 12.04L52.17 12.04Q53.54 12.04 54.48 11.01L54.48 11.01L54.48 11.01Q55.43 9.97 55.43 8.10L55.43 8.10L55.43 8.10Q55.43 5.99 54.26 4.72L54.26 4.72L54.26 4.72Q53.12 3.46 51.60 3.45L51.60 3.45L51.60 3.45Q51.08 3.45 50.54 3.65L50.54 3.65L50.54 3.65Q50.00 3.85 49.49 4.25L49.49 4.25L49.49 4.25Q48.95 4.68 48.62 5.48L48.62 5.48L48.62 5.48Q48.30 6.27 48.30 7.38ZM65.31 3.64L64.82 3.64L64.82 3.08L68.33 3.08L68.32 3.64L67.58 3.64L67.58 3.64Q67.25 3.64 67.25 3.82L67.25 3.82L67.25 3.82Q67.25 3.98 67.44 4.48L67.44 4.48L70.04 10.94L72.98 4.18L72.98 4.18Q73.05 3.97 73.06 3.92L73.06 3.92L73.06 3.92Q73.06 3.79 72.96 3.74L72.96 3.74L72.96 3.74Q72.86 3.68 72.71 3.65L72.71 3.65L72.71 3.65Q72.63 3.64 72.37 3.64L72.37 3.64L71.92 3.64L71.89 3.08L74.73 3.08L74.70 3.64L74.30 3.64L74.30 3.64Q73.98 3.64 73.82 3.83L73.82 3.83L73.82 3.83Q73.74 3.93 73.27 4.94L73.27 4.94L73.27 4.94Q73.06 5.46 72.99 5.57L72.99 5.57L69.86 12.63L69.62 12.63L66.38 4.73L66.38 4.73Q66.06 3.93 65.91 3.79L65.91 3.79L65.91 3.79Q65.75 3.63 65.31 3.64L65.31 3.64ZM82.48 12.41L82.47 11.87L82.64 11.87L82.64 11.87Q83.03 11.87 83.16 11.73L83.16 11.73L83.16 11.73Q83.28 11.57 83.62 10.83L83.62 10.83L84.53 8.82L85.10 7.53L85.10 7.53Q85.37 6.97 85.41 6.86L85.41 6.86L85.41 6.86Q85.48 6.70 85.53 6.60L85.53 6.60L85.53 6.60Q85.58 6.51 85.59 6.45L85.59 6.45L85.69 6.21L87.12 2.74L87.41 2.74L87.41 2.74Q88.27 4.98 90.45 10.25L90.45 10.25L90.45 10.25Q90.90 11.34 91.10 11.64L91.10 11.64L91.10 11.64Q91.23 11.87 91.67 11.87L91.67 11.87L91.88 11.87L91.87 12.41L88.68 12.41L88.69 11.87L89.11 11.87L89.11 11.87Q89.72 11.87 89.72 11.70L89.72 11.70L89.72 11.70Q89.72 11.63 89.58 11.27L89.58 11.27L88.55 8.72L85.30 8.72L84.19 11.18L84.19 11.18Q84.05 11.50 84.05 11.63L84.05 11.63L84.05 11.63Q84.05 11.79 84.15 11.83L84.15 11.83L84.15 11.83Q84.25 11.87 84.63 11.87L84.63 11.87L85.20 11.87L85.20 12.41L82.48 12.41ZM86.98 4.79L85.57 8.10L88.31 8.10L86.98 4.79ZM99.89 5.35L99.39 5.33L99.39 5.33Q99.52 4.17 99.60 3.08L99.60 3.08L107.68 3.08L107.68 3.08Q107.60 4.13 107.57 4.53L107.57 4.53L107.57 4.53Q107.53 5.26 107.51 5.32L107.51 5.32L107.01 5.30L107.01 5.30Q107.09 4.34 107.09 4.16L107.09 4.16L107.09 4.16Q107.09 3.88 106.95 3.79L106.95 3.79L106.95 3.79Q106.78 3.69 106.37 3.69L106.37 3.69L104.77 3.69L104.77 3.69Q104.26 3.69 104.14 3.79L104.14 3.79L104.14 3.79Q104.04 3.87 104.04 4.36L104.04 4.36L104.04 11.22L104.04 11.22Q104.04 11.66 104.18 11.76L104.18 11.76L104.18 11.76Q104.34 11.87 104.85 11.87L104.85 11.87L105.41 11.87L105.42 12.41L101.73 12.40L101.73 11.87L101.95 11.87L101.95 11.87Q102.62 11.87 102.76 11.79L102.76 11.79L102.76 11.79Q102.91 11.70 102.91 11.28L102.91 11.28L102.91 4.48L102.91 4.48Q102.91 3.92 102.81 3.80L102.81 3.80L102.81 3.80Q102.71 3.69 102.29 3.69L102.29 3.69L100.82 3.69L100.82 3.69Q100.63 3.69 100.56 3.71L100.56 3.71L100.56 3.71Q100.50 3.72 100.39 3.72L100.39 3.72L100.39 3.72Q100.36 3.72 100.24 3.79L100.24 3.79L100.24 3.79Q100.16 3.84 100.13 3.86L100.13 3.86L100.13 3.86Q100.11 3.88 100.06 3.99L100.06 3.99L100.06 3.99Q100.04 4.05 100.01 4.14L100.01 4.14L100.01 4.14Q99.98 4.21 99.96 4.36L99.96 4.36L99.96 4.36Q99.93 4.59 99.93 4.61L99.93 4.61L99.93 4.61Q99.93 4.80 99.92 4.95L99.92 4.95L99.92 4.95Q99.92 5.02 99.91 5.15L99.91 5.15L99.91 5.15Q99.91 5.29 99.89 5.35L99.89 5.35ZM116.01 3.64L115.42 3.64L115.43 3.08L118.95 3.08L118.95 3.64L118.71 3.64L118.71 3.64Q118.17 3.64 118.00 3.73L118.00 3.73L118.00 3.73Q117.86 3.81 117.86 4.28L117.86 4.28L117.86 11.22L117.86 11.22Q117.86 11.68 117.97 11.77L117.97 11.77L117.97 11.77Q118.08 11.87 118.61 11.87L118.61 11.87L119.16 11.87L119.17 12.41L115.59 12.41L115.58 11.87L115.94 11.87L115.94 11.87Q116.50 11.87 116.61 11.77L116.61 11.77L116.61 11.77Q116.72 11.67 116.72 11.25L116.72 11.25L116.72 4.14L116.72 4.14Q116.72 3.77 116.62 3.71L116.62 3.71L116.62 3.71Q116.51 3.64 116.01 3.64L116.01 3.64ZM126.92 3.64L126.91 3.08L129.08 3.08L134.82 10.48L134.82 4.14L134.82 4.14Q134.82 3.81 134.66 3.72L134.66 3.72L134.66 3.72Q134.51 3.64 134.05 3.64L134.05 3.64L133.56 3.64L133.59 3.08L136.57 3.08L136.57 3.64L136.25 3.64L136.25 3.64Q135.78 3.64 135.63 3.75L135.63 3.75L135.63 3.75Q135.48 3.86 135.48 4.25L135.48 4.25L135.48 12.32L135.48 12.47L135.48 12.47Q135.48 12.52 135.47 12.57L135.47 12.57L135.47 12.57Q135.45 12.61 135.42 12.64L135.42 12.64L135.42 12.64Q135.41 12.65 135.35 12.65L135.35 12.65L135.16 12.65L135.10 12.65L135.07 12.65L135.04 12.64L135.04 12.64Q135.02 12.64 135.00 12.63L135.00 12.63L135.00 12.63Q134.99 12.61 134.99 12.60L134.99 12.60L134.99 12.60Q134.99 12.58 134.98 12.57L134.98 12.57L134.98 12.57Q134.95 12.54 134.92 12.50L134.92 12.50L134.92 12.50Q134.91 12.48 134.89 12.45L134.89 12.45L134.89 12.45Q134.87 12.41 134.85 12.40L134.85 12.40L128.75 4.56L128.82 11.22L128.82 11.22Q128.82 11.67 128.98 11.77L128.98 11.77L128.98 11.77Q129.14 11.87 129.85 11.87L129.85 11.87L130.09 11.87L130.09 12.41L127.15 12.41L127.15 11.87L127.57 11.87L127.57 11.87Q127.95 11.87 128.06 11.76L128.06 11.76L128.06 11.76Q128.15 11.66 128.16 11.25L128.16 11.25L128.16 3.80L128.02 3.64L126.92 3.64ZM144.69 8.24L144.69 8.24L144.69 8.24Q144.69 6.92 145.30 5.72L145.30 5.72L145.30 5.72Q145.92 4.52 147.15 3.72L147.15 3.72L147.15 3.72Q148.39 2.92 150.01 2.92L150.01 2.92L150.01 2.92Q151.28 2.92 152.87 3.57L152.87 3.57L152.87 2.86L153.43 2.86L153.52 5.92L152.97 5.93L152.88 4.48L152.88 4.48Q152.80 4.41 152.52 4.24L152.52 4.24L152.52 4.24Q152.27 4.07 151.52 3.83L151.52 3.83L151.52 3.83Q150.79 3.60 149.89 3.60L149.89 3.60L149.89 3.60Q148.91 3.60 148.15 3.93L148.15 3.93L148.15 3.93Q147.38 4.27 146.91 4.83L146.91 4.83L146.91 4.83Q146.45 5.39 146.20 6.08L146.20 6.08L146.20 6.08Q145.95 6.78 145.95 7.57L145.95 7.57L145.95 7.57Q145.95 9.33 147.07 10.69L147.07 10.69L147.07 10.69Q148.19 12.05 150.05 12.05L150.05 12.05L150.05 12.05Q150.75 12.05 151.38 11.85L151.38 11.85L151.38 11.85Q152.01 11.66 152.23 11.48L152.23 11.48L152.47 11.28L152.47 8.78L150.81 8.78L150.79 8.23L154.66 8.23L154.67 8.78L153.60 8.78L153.60 11.64L152.82 11.98L152.82 11.98Q152.12 12.30 151.89 12.39L151.89 12.39L151.89 12.39Q151.64 12.48 151.00 12.61L151.00 12.61L151.00 12.61Q150.39 12.74 149.78 12.74L149.78 12.74L149.78 12.74Q148.48 12.74 147.51 12.37L147.51 12.37L147.51 12.37Q146.52 12.00 145.91 11.36L145.91 11.36L145.91 11.36Q145.32 10.76 145.00 9.94L145.00 9.94L145.00 9.94Q144.69 9.15 144.69 8.24ZM172.26 5.35L171.76 5.33L171.76 5.33Q171.88 4.17 171.96 3.08L171.96 3.08L180.04 3.08L180.04 3.08Q179.96 4.13 179.94 4.53L179.94 4.53L179.94 4.53Q179.89 5.26 179.87 5.32L179.87 5.32L179.38 5.30L179.38 5.30Q179.46 4.34 179.46 4.16L179.46 4.16L179.46 4.16Q179.46 3.88 179.31 3.79L179.31 3.79L179.31 3.79Q179.14 3.69 178.74 3.69L178.74 3.69L177.13 3.69L177.13 3.69Q176.63 3.69 176.50 3.79L176.50 3.79L176.50 3.79Q176.41 3.87 176.40 4.36L176.40 4.36L176.40 11.22L176.40 11.22Q176.40 11.66 176.54 11.76L176.54 11.76L176.54 11.76Q176.70 11.87 177.21 11.87L177.21 11.87L177.78 11.87L177.79 12.41L174.10 12.40L174.10 11.87L174.32 11.87L174.32 11.87Q174.99 11.87 175.13 11.79L175.13 11.79L175.13 11.79Q175.27 11.70 175.27 11.28L175.27 11.28L175.27 4.48L175.27 4.48Q175.27 3.92 175.17 3.80L175.17 3.80L175.17 3.80Q175.08 3.69 174.65 3.69L174.65 3.69L173.18 3.69L173.18 3.69Q173.00 3.69 172.93 3.71L172.93 3.71L172.93 3.71Q172.86 3.72 172.75 3.72L172.75 3.72L172.75 3.72Q172.72 3.72 172.61 3.79L172.61 3.79L172.61 3.79Q172.53 3.84 172.50 3.86L172.50 3.86L172.50 3.86Q172.47 3.88 172.43 3.99L172.43 3.99L172.43 3.99Q172.40 4.05 172.38 4.14L172.38 4.14L172.38 4.14Q172.35 4.21 172.33 4.36L172.33 4.36L172.33 4.36Q172.30 4.59 172.30 4.61L172.30 4.61L172.30 4.61Q172.30 4.80 172.29 4.95L172.29 4.95L172.29 4.95Q172.29 5.02 172.28 5.15L172.28 5.15L172.28 5.15Q172.27 5.29 172.26 5.35L172.26 5.35ZM188.15 3.64L187.78 3.64L187.78 3.08L191.27 3.08L191.27 3.64L190.91 3.64L190.91 3.64Q190.40 3.64 190.25 3.75L190.25 3.75L190.25 3.75Q190.11 3.84 190.11 4.25L190.11 4.25L190.11 6.91L194.66 6.91L194.66 4.14L194.66 4.14Q194.66 3.77 194.56 3.71L194.56 3.71L194.56 3.71Q194.46 3.64 193.93 3.64L193.93 3.64L193.34 3.64L193.33 3.08L196.88 3.08L196.88 3.64L196.49 3.64L196.49 3.64Q196.01 3.64 195.90 3.74L195.90 3.74L195.90 3.74Q195.79 3.83 195.79 4.22L195.79 4.22L195.79 11.29L195.79 11.29Q195.79 11.67 195.93 11.77L195.93 11.77L195.93 11.77Q196.09 11.87 196.64 11.87L196.64 11.87L197.11 11.87L197.09 12.41L193.61 12.41L193.59 11.87L194.00 11.87L194.00 11.87Q194.47 11.87 194.56 11.77L194.56 11.77L194.56 11.77Q194.66 11.67 194.66 11.25L194.66 11.25L194.66 7.58L190.11 7.58L190.11 11.25L190.11 11.25Q190.11 11.67 190.26 11.77L190.26 11.77L190.26 11.77Q190.42 11.87 191.12 11.87L191.12 11.87L191.52 11.87L191.50 12.41L187.91 12.41L187.90 11.87L188.26 11.87L188.26 11.87Q188.81 11.87 188.88 11.80L188.88 11.80L188.88 11.80Q188.97 11.70 188.97 11.25L188.97 11.25L188.97 4.09L188.97 4.09Q188.97 3.76 188.84 3.71L188.84 3.71L188.84 3.71Q188.67 3.64 188.15 3.64L188.15 3.64ZM204.86 3.64L204.85 3.08L212.06 3.08L212.06 3.08Q212.07 4.14 212.13 5.28L212.13 5.28L211.58 5.30L211.58 5.30Q211.57 4.66 211.51 4.25L211.51 4.25L211.51 4.25Q211.47 3.89 211.42 3.80L211.42 3.80L211.42 3.80Q211.36 3.71 211.24 3.69L211.24 3.69L211.24 3.69Q211.15 3.68 210.56 3.68L210.56 3.68L208.18 3.68L208.18 3.68Q207.63 3.68 207.49 3.77L207.49 3.77L207.49 3.77Q207.37 3.86 207.37 4.33L207.37 4.33L207.37 6.28L207.37 6.28Q207.37 6.69 207.42 6.76L207.42 6.76L207.42 6.76Q207.49 6.84 207.83 6.84L207.83 6.84L209.95 6.84L209.95 6.84Q210.31 6.84 210.39 6.73L210.39 6.73L210.39 6.73Q210.47 6.63 210.48 6.14L210.48 6.14L210.48 5.61L210.99 5.63L210.99 8.97L210.48 8.97L210.48 8.24L210.48 8.24Q210.48 7.66 210.40 7.57L210.40 7.57L210.40 7.57Q210.32 7.46 209.97 7.46L209.97 7.46L207.87 7.46L207.87 7.46Q207.54 7.46 207.45 7.54L207.45 7.54L207.45 7.54Q207.37 7.63 207.37 7.89L207.37 7.89L207.37 11.20L207.37 11.20Q207.37 11.57 207.45 11.67L207.45 11.67L207.45 11.67Q207.54 11.77 207.81 11.77L207.81 11.77L207.81 11.77Q210.73 11.75 211.26 11.69L211.26 11.69L211.26 11.69Q211.78 11.63 211.86 11.38L211.86 11.38L211.87 11.36L211.87 11.35L212.10 10.17L212.58 10.25L212.23 12.41L205.13 12.41L205.13 11.87L205.50 11.87L205.50 11.87Q206.06 11.87 206.14 11.80L206.14 11.80L206.14 11.80Q206.23 11.72 206.23 11.33L206.23 11.33L206.23 4.24L206.23 4.24Q206.23 3.82 206.08 3.73L206.08 3.73L206.08 3.73Q205.91 3.64 205.26 3.64L205.26 3.64L204.86 3.64ZM230.06 3.64L230.02 3.08L233.80 3.08L233.80 3.08Q235.12 3.08 235.99 3.19L235.99 3.19L235.99 3.19Q236.81 3.29 237.50 3.69L237.50 3.69L237.50 3.69Q238.45 4.27 238.96 5.24L238.96 5.24L238.96 5.24Q239.45 6.21 239.45 7.39L239.45 7.39L239.45 7.39Q239.45 8.05 239.31 8.65L239.31 8.65L239.31 8.65Q239.15 9.29 238.76 9.98L238.76 9.98L238.76 9.98Q238.33 10.73 237.77 11.21L237.77 11.21L237.77 11.21Q237.14 11.76 236.17 12.08L236.17 12.08L236.17 12.08Q235.16 12.41 233.89 12.41L233.89 12.41L230.28 12.41L230.26 11.87L230.64 11.87L230.64 11.87Q231.16 11.87 231.26 11.79L231.26 11.79L231.26 11.79Q231.37 11.70 231.37 11.25L231.37 11.25L231.37 4.14L231.37 4.14Q231.37 3.77 231.27 3.71L231.27 3.71L231.27 3.71Q231.16 3.64 230.65 3.64L230.65 3.64L230.06 3.64ZM232.50 4.39L232.50 11.22L232.50 11.22Q232.50 11.67 232.67 11.77L232.67 11.77L232.67 11.77Q232.83 11.87 233.69 11.87L233.69 11.87L233.69 11.87Q234.75 11.87 235.54 11.61L235.54 11.61L235.54 11.61Q236.39 11.35 236.83 10.99L236.83 10.99L236.83 10.99Q237.32 10.58 237.63 10.05L237.63 10.05L237.63 10.05Q237.93 9.52 238.06 8.96L238.06 8.96L238.06 8.96Q238.18 8.41 238.18 7.82L238.18 7.82L238.18 7.82Q238.18 7.03 237.92 6.34L237.92 6.34L237.92 6.34Q237.65 5.65 237.13 5.05L237.13 5.05L237.13 5.05Q236.59 4.46 235.68 4.09L235.68 4.09L235.68 4.09Q234.76 3.73 233.60 3.73L233.60 3.73L233.08 3.73L233.08 3.73Q232.72 3.73 232.61 3.85L232.61 3.85L232.61 3.85Q232.50 3.99 232.50 4.39L232.50 4.39ZM248.01 3.64L247.42 3.64L247.43 3.08L250.95 3.08L250.95 3.64L250.71 3.64L250.71 3.64Q250.17 3.64 250.00 3.73L250.00 3.73L250.00 3.73Q249.86 3.81 249.86 4.28L249.86 4.28L249.86 11.22L249.86 11.22Q249.86 11.68 249.97 11.77L249.97 11.77L249.97 11.77Q250.08 11.87 250.61 11.87L250.61 11.87L251.16 11.87L251.17 12.41L247.59 12.41L247.58 11.87L247.94 11.87L247.94 11.87Q248.50 11.87 248.61 11.77L248.61 11.77L248.61 11.77Q248.73 11.67 248.73 11.25L248.73 11.25L248.73 4.14L248.73 4.14Q248.73 3.77 248.62 3.71L248.62 3.71L248.62 3.71Q248.51 3.64 248.01 3.64L248.01 3.64ZM259.29 8.24L259.29 8.24L259.29 8.24Q259.29 6.92 259.91 5.72L259.91 5.72L259.91 5.72Q260.52 4.52 261.75 3.72L261.75 3.72L261.75 3.72Q262.99 2.92 264.61 2.92L264.61 2.92L264.61 2.92Q265.88 2.92 267.47 3.57L267.47 3.57L267.47 2.86L268.03 2.86L268.13 5.92L267.58 5.93L267.48 4.48L267.48 4.48Q267.40 4.41 267.13 4.24L267.13 4.24L267.13 4.24Q266.88 4.07 266.12 3.83L266.12 3.83L266.12 3.83Q265.40 3.60 264.50 3.60L264.50 3.60L264.50 3.60Q263.52 3.60 262.75 3.93L262.75 3.93L262.75 3.93Q261.98 4.27 261.52 4.83L261.52 4.83L261.52 4.83Q261.05 5.39 260.80 6.08L260.80 6.08L260.80 6.08Q260.55 6.78 260.55 7.57L260.55 7.57L260.55 7.57Q260.55 9.33 261.67 10.69L261.67 10.69L261.67 10.69Q262.79 12.05 264.65 12.05L264.65 12.05L264.65 12.05Q265.35 12.05 265.98 11.85L265.98 11.85L265.98 11.85Q266.62 11.66 266.83 11.48L266.83 11.48L267.07 11.28L267.07 8.78L265.41 8.78L265.40 8.23L269.26 8.23L269.27 8.78L268.21 8.78L268.21 11.64L267.42 11.98L267.42 11.98Q266.72 12.30 266.50 12.39L266.50 12.39L266.50 12.39Q266.25 12.48 265.60 12.61L265.60 12.61L265.60 12.61Q265.00 12.74 264.39 12.74L264.39 12.74L264.39 12.74Q263.09 12.74 262.12 12.37L262.12 12.37L262.12 12.37Q261.13 12.00 260.51 11.36L260.51 11.36L260.51 11.36Q259.92 10.76 259.60 9.94L259.60 9.94L259.60 9.94Q259.29 9.15 259.29 8.24ZM277.60 3.64L277.01 3.64L277.03 3.08L280.54 3.08L280.54 3.64L280.31 3.64L280.31 3.64Q279.76 3.64 279.59 3.73L279.59 3.73L279.59 3.73Q279.45 3.81 279.45 4.28L279.45 4.28L279.45 11.22L279.45 11.22Q279.45 11.68 279.56 11.77L279.56 11.77L279.56 11.77Q279.67 11.87 280.21 11.87L280.21 11.87L280.75 11.87L280.77 12.41L277.18 12.41L277.17 11.87L277.53 11.87L277.53 11.87Q278.09 11.87 278.21 11.77L278.21 11.77L278.21 11.77Q278.32 11.67 278.32 11.25L278.32 11.25L278.32 4.14L278.32 4.14Q278.32 3.77 278.22 3.71L278.22 3.71L278.22 3.71Q278.11 3.64 277.60 3.64L277.60 3.64ZM288.78 5.35L288.29 5.33L288.29 5.33Q288.41 4.17 288.49 3.08L288.49 3.08L296.57 3.08L296.57 3.08Q296.49 4.13 296.46 4.53L296.46 4.53L296.46 4.53Q296.42 5.26 296.40 5.32L296.40 5.32L295.90 5.30L295.90 5.30Q295.98 4.34 295.98 4.16L295.98 4.16L295.98 4.16Q295.98 3.88 295.84 3.79L295.84 3.79L295.84 3.79Q295.67 3.69 295.26 3.69L295.26 3.69L293.66 3.69L293.66 3.69Q293.15 3.69 293.03 3.79L293.03 3.79L293.03 3.79Q292.93 3.87 292.93 4.36L292.93 4.36L292.93 11.22L292.93 11.22Q292.93 11.66 293.07 11.76L293.07 11.76L293.07 11.76Q293.23 11.87 293.74 11.87L293.74 11.87L294.30 11.87L294.31 12.41L290.62 12.40L290.62 11.87L290.84 11.87L290.84 11.87Q291.51 11.87 291.66 11.79L291.66 11.79L291.66 11.79Q291.80 11.70 291.80 11.28L291.80 11.28L291.80 4.48L291.80 4.48Q291.80 3.92 291.70 3.80L291.70 3.80L291.70 3.80Q291.60 3.69 291.18 3.69L291.18 3.69L289.71 3.69L289.71 3.69Q289.52 3.69 289.45 3.71L289.45 3.71L289.45 3.71Q289.39 3.72 289.28 3.72L289.28 3.72L289.28 3.72Q289.25 3.72 289.13 3.79L289.13 3.79L289.13 3.79Q289.05 3.84 289.02 3.86L289.02 3.86L289.02 3.86Q289.00 3.88 288.96 3.99L288.96 3.99L288.96 3.99Q288.93 4.05 288.90 4.14L288.90 4.14L288.90 4.14Q288.87 4.21 288.85 4.36L288.85 4.36L288.85 4.36Q288.83 4.59 288.83 4.61L288.83 4.61L288.83 4.61Q288.83 4.80 288.81 4.95L288.81 4.95L288.81 4.95Q288.81 5.02 288.80 5.15L288.80 5.15L288.80 5.15Q288.80 5.29 288.78 5.35L288.78 5.35ZM304.32 12.41L304.31 11.87L304.48 11.87L304.48 11.87Q304.87 11.87 305.00 11.73L305.00 11.73L305.00 11.73Q305.12 11.57 305.46 10.83L305.46 10.83L306.37 8.82L306.94 7.53L306.94 7.53Q307.21 6.97 307.25 6.86L307.25 6.86L307.25 6.86Q307.32 6.70 307.37 6.60L307.37 6.60L307.37 6.60Q307.42 6.51 307.43 6.45L307.43 6.45L307.53 6.21L308.96 2.74L309.25 2.74L309.25 2.74Q310.11 4.98 312.29 10.25L312.29 10.25L312.29 10.25Q312.74 11.34 312.94 11.64L312.94 11.64L312.94 11.64Q313.07 11.87 313.51 11.87L313.51 11.87L313.72 11.87L313.71 12.41L310.52 12.41L310.53 11.87L310.95 11.87L310.95 11.87Q311.56 11.87 311.56 11.70L311.56 11.70L311.56 11.70Q311.56 11.63 311.42 11.27L311.42 11.27L310.39 8.72L307.14 8.72L306.03 11.18L306.03 11.18Q305.89 11.50 305.89 11.63L305.89 11.63L305.89 11.63Q305.89 11.79 305.99 11.83L305.99 11.83L305.99 11.83Q306.09 11.87 306.47 11.87L306.47 11.87L307.04 11.87L307.04 12.41L304.32 12.41ZM308.82 4.79L307.41 8.10L310.15 8.10L308.82 4.79ZM321.95 3.64L321.45 3.64L321.47 3.08L325.06 3.08L325.06 3.64L324.42 3.64L324.42 3.64Q324.04 3.64 323.93 3.72L323.93 3.72L323.93 3.72Q323.82 3.80 323.82 4.16L323.82 4.16L323.82 11.22L323.82 11.22Q323.82 11.57 323.90 11.67L323.90 11.67L323.90 11.67Q323.99 11.77 324.28 11.77L324.28 11.77L324.28 11.77Q327.15 11.74 327.81 11.63L327.81 11.63L327.81 11.63Q328.02 11.61 328.10 11.39L328.10 11.39L328.10 11.39Q328.19 11.17 328.38 10.05L328.38 10.05L328.88 10.08L328.41 12.41L321.65 12.41L321.64 11.87L322.03 11.87L322.03 11.87Q322.53 11.87 322.60 11.80L322.60 11.80L322.60 11.80Q322.68 11.72 322.69 11.33L322.69 11.33L322.69 4.09L322.69 4.09Q322.69 3.80 322.53 3.72L322.53 3.72L322.53 3.72Q322.38 3.64 321.95 3.64L321.95 3.64ZM346.67 3.64L346.18 3.64L346.19 3.08L349.78 3.08L349.78 3.64L349.15 3.64L349.15 3.64Q348.77 3.64 348.66 3.72L348.66 3.72L348.66 3.72Q348.54 3.80 348.54 4.16L348.54 4.16L348.54 11.22L348.54 11.22Q348.54 11.57 348.63 11.67L348.63 11.67L348.63 11.67Q348.71 11.77 349.01 11.77L349.01 11.77L349.01 11.77Q351.88 11.74 352.54 11.63L352.54 11.63L352.54 11.63Q352.75 11.61 352.83 11.39L352.83 11.39L352.83 11.39Q352.91 11.17 353.11 10.05L353.11 10.05L353.60 10.08L353.14 12.41L346.38 12.41L346.36 11.87L346.75 11.87L346.75 11.87Q347.26 11.87 347.33 11.80L347.33 11.80L347.33 11.80Q347.41 11.72 347.42 11.33L347.42 11.33L347.42 4.09L347.42 4.09Q347.42 3.80 347.26 3.72L347.26 3.72L347.26 3.72Q347.11 3.64 346.67 3.64L346.67 3.64ZM361.35 12.41L361.33 11.87L361.50 11.87L361.50 11.87Q361.89 11.87 362.02 11.73L362.02 11.73L362.02 11.73Q362.15 11.57 362.48 10.83L362.48 10.83L363.39 8.82L363.97 7.53L363.97 7.53Q364.23 6.97 364.27 6.86L364.27 6.86L364.27 6.86Q364.34 6.70 364.39 6.60L364.39 6.60L364.39 6.60Q364.44 6.51 364.46 6.45L364.46 6.45L364.55 6.21L365.98 2.74L366.28 2.74L366.28 2.74Q367.13 4.98 369.32 10.25L369.32 10.25L369.32 10.25Q369.77 11.34 369.96 11.64L369.96 11.64L369.96 11.64Q370.10 11.87 370.54 11.87L370.54 11.87L370.75 11.87L370.73 12.41L367.54 12.41L367.55 11.87L367.97 11.87L367.97 11.87Q368.59 11.87 368.59 11.70L368.59 11.70L368.59 11.70Q368.59 11.63 368.45 11.27L368.45 11.27L367.41 8.72L364.16 8.72L363.06 11.18L363.06 11.18Q362.92 11.50 362.92 11.63L362.92 11.63L362.92 11.63Q362.92 11.79 363.02 11.83L363.02 11.83L363.02 11.83Q363.11 11.87 363.49 11.87L363.49 11.87L364.07 11.87L364.07 12.41L361.35 12.41ZM365.85 4.79L364.43 8.10L367.17 8.10L365.85 4.79ZM378.49 3.64L378.48 3.08L380.65 3.08L386.39 10.48L386.39 4.14L386.39 4.14Q386.39 3.81 386.23 3.72L386.23 3.72L386.23 3.72Q386.08 3.64 385.62 3.64L385.62 3.64L385.13 3.64L385.16 3.08L388.14 3.08L388.14 3.64L387.82 3.64L387.82 3.64Q387.35 3.64 387.20 3.75L387.20 3.75L387.20 3.75Q387.05 3.86 387.05 4.25L387.05 4.25L387.05 12.32L387.05 12.47L387.05 12.47Q387.05 12.52 387.04 12.57L387.04 12.57L387.04 12.57Q387.02 12.61 386.99 12.64L386.99 12.64L386.99 12.64Q386.98 12.65 386.92 12.65L386.92 12.65L386.73 12.65L386.67 12.65L386.64 12.65L386.61 12.64L386.61 12.64Q386.59 12.64 386.57 12.63L386.57 12.63L386.57 12.63Q386.56 12.61 386.56 12.60L386.56 12.60L386.56 12.60Q386.56 12.58 386.54 12.57L386.54 12.57L386.54 12.57Q386.52 12.54 386.49 12.50L386.49 12.50L386.49 12.50Q386.48 12.48 386.46 12.45L386.46 12.45L386.46 12.45Q386.44 12.41 386.42 12.40L386.42 12.40L380.32 4.56L380.39 11.22L380.39 11.22Q380.39 11.67 380.55 11.77L380.55 11.77L380.55 11.77Q380.71 11.87 381.42 11.87L381.42 11.87L381.66 11.87L381.66 12.41L378.72 12.41L378.72 11.87L379.14 11.87L379.14 11.87Q379.52 11.87 379.63 11.76L379.63 11.76L379.63 11.76Q379.72 11.66 379.73 11.25L379.73 11.25L379.73 3.80L379.59 3.64L378.49 3.64ZM395.92 3.64L395.88 3.08L399.66 3.08L399.66 3.08Q400.98 3.08 401.84 3.19L401.84 3.19L401.84 3.19Q402.66 3.29 403.35 3.69L403.35 3.69L403.35 3.69Q404.30 4.27 404.81 5.24L404.81 5.24L404.81 5.24Q405.30 6.21 405.30 7.39L405.30 7.39L405.30 7.39Q405.30 8.05 405.16 8.65L405.16 8.65L405.16 8.65Q405.00 9.29 404.61 9.98L404.61 9.98L404.61 9.98Q404.18 10.73 403.62 11.21L403.62 11.21L403.62 11.21Q402.99 11.76 402.02 12.08L402.02 12.08L402.02 12.08Q401.02 12.41 399.75 12.41L399.75 12.41L396.13 12.41L396.12 11.87L396.49 11.87L396.49 11.87Q397.01 11.87 397.11 11.79L397.11 11.79L397.11 11.79Q397.22 11.70 397.22 11.25L397.22 11.25L397.22 4.14L397.22 4.14Q397.22 3.77 397.13 3.71L397.13 3.71L397.13 3.71Q397.02 3.64 396.50 3.64L396.50 3.64L395.92 3.64ZM398.36 4.39L398.36 11.22L398.36 11.22Q398.36 11.67 398.52 11.77L398.52 11.77L398.52 11.77Q398.68 11.87 399.55 11.87L399.55 11.87L399.55 11.87Q400.60 11.87 401.39 11.61L401.39 11.61L401.39 11.61Q402.25 11.35 402.68 10.99L402.68 10.99L402.68 10.99Q403.18 10.58 403.48 10.05L403.48 10.05L403.48 10.05Q403.79 9.52 403.92 8.96L403.92 8.96L403.92 8.96Q404.04 8.41 404.04 7.82L404.04 7.82L404.04 7.82Q404.04 7.03 403.77 6.34L403.77 6.34L403.77 6.34Q403.50 5.65 402.98 5.05L402.98 5.05L402.98 5.05Q402.45 4.46 401.54 4.09L401.54 4.09L401.54 4.09Q400.61 3.73 399.45 3.73L399.45 3.73L398.93 3.73L398.93 3.73Q398.57 3.73 398.47 3.85L398.47 3.85L398.47 3.85Q398.36 3.99 398.36 4.39L398.36 4.39ZM413.25 10.04L413.25 10.04L413.74 9.98L413.92 10.85L413.92 10.85Q414.03 11.33 414.10 11.41L414.10 11.41L414.10 11.41Q414.17 11.49 414.58 11.64L414.58 11.64L414.58 11.64Q415.42 11.95 416.32 11.95L416.32 11.95L416.32 11.95Q417.10 11.95 417.64 11.49L417.64 11.49L417.64 11.49Q418.17 11.04 418.17 10.26L418.17 10.26L418.17 10.26Q418.17 9.65 417.72 9.21L417.72 9.21L417.72 9.21Q417.24 8.76 416.38 8.30L416.38 8.30L415.81 7.98L415.81 7.98Q415.06 7.55 414.83 7.36L414.83 7.36L414.83 7.36Q414.47 7.08 414.16 6.59L414.16 6.59L414.16 6.59Q413.85 6.10 413.85 5.46L413.85 5.46L413.85 5.46Q413.85 4.39 414.69 3.68L414.69 3.68L414.69 3.68Q415.53 2.97 416.64 2.97L416.64 2.97L416.64 2.97Q416.92 2.97 417.27 3.04L417.27 3.04L417.27 3.04Q417.46 3.08 417.80 3.17L417.80 3.17L418.04 3.25L418.04 3.25Q418.13 3.25 418.17 3.16L418.17 3.16L418.17 3.16Q418.23 3.05 418.23 2.98L418.23 2.98L418.24 2.88L418.72 2.85L418.93 5.41L418.43 5.43L418.30 4.18L418.30 4.18Q417.56 3.62 416.40 3.62L416.40 3.62L416.40 3.62Q415.75 3.62 415.25 4.05L415.25 4.05L415.25 4.05Q414.77 4.47 414.77 5.12L414.77 5.12L414.77 5.12Q414.77 5.72 415.22 6.17L415.22 6.17L415.22 6.17Q415.65 6.60 416.52 7.08L416.52 7.08L417.29 7.50L417.29 7.50Q418.24 8.03 418.78 8.59L418.78 8.59L418.78 8.59Q419.31 9.15 419.31 9.92L419.31 9.92L419.31 9.92Q419.31 10.99 418.46 11.76L418.46 11.76L418.46 11.76Q417.59 12.54 416.13 12.54L416.13 12.54L416.13 12.54Q415.57 12.54 415.07 12.41L415.07 12.41L415.07 12.41Q414.57 12.29 414.51 12.29L414.51 12.29L414.51 12.29Q414.26 12.29 414.26 12.58L414.26 12.58L414.27 12.76L413.79 12.80L413.79 12.80Q413.73 12.41 413.25 10.04ZM427.88 8.02L427.88 8.02L427.88 8.02Q427.88 6.86 428.35 5.83L428.35 5.83L428.35 5.83Q428.81 4.85 429.56 4.27L429.56 4.27L429.56 4.27Q430.31 3.69 431.20 3.37L431.20 3.37L431.20 3.37Q432.10 3.05 432.94 3.05L432.94 3.05L432.94 3.05Q433.81 3.05 434.48 3.16L434.48 3.16L434.48 3.16Q435.11 3.26 435.40 3.37L435.40 3.37L435.40 3.37Q435.71 3.48 435.74 3.48L435.74 3.48L435.74 3.48Q435.91 3.48 435.93 3.41L435.93 3.41L435.93 3.41Q435.96 3.33 435.96 3.09L435.96 3.09L435.96 2.97L436.50 2.97L436.50 2.97Q436.54 4.30 436.67 5.64L436.67 5.64L436.16 5.65L436.16 5.65Q436.13 5.40 436.12 5.26L436.12 5.26L436.12 5.26Q436.12 5.20 436.11 5.13L436.11 5.13L436.11 5.13Q436.11 5.07 436.10 5.02L436.10 5.02L436.10 5.02Q436.09 4.98 436.09 4.95L436.09 4.95L436.09 4.95Q436.06 4.84 436.06 4.74L436.06 4.74L436.06 4.74Q436.06 4.68 436.02 4.59L436.02 4.59L436.02 4.59Q436.02 4.57 435.99 4.55L435.99 4.55L435.99 4.55Q435.96 4.52 435.96 4.50L435.96 4.50L435.96 4.50Q435.93 4.44 435.87 4.41L435.87 4.41L435.87 4.41Q435.83 4.38 435.80 4.37L435.80 4.37L435.80 4.37Q435.77 4.36 435.74 4.35L435.74 4.35L435.74 4.35Q435.73 4.35 435.71 4.33L435.71 4.33L435.71 4.33Q435.68 4.31 435.64 4.29L435.64 4.29L435.64 4.29Q435.60 4.27 435.56 4.25L435.56 4.25L435.56 4.25Q435.33 4.16 435.31 4.14L435.31 4.14L435.31 4.14Q434.96 3.96 434.31 3.83L434.31 3.83L434.31 3.83Q433.64 3.71 432.98 3.71L432.98 3.71L432.98 3.71Q431.26 3.71 430.17 4.84L430.17 4.84L430.17 4.84Q429.06 5.99 429.06 7.62L429.06 7.62L429.06 7.62Q429.06 9.35 430.28 10.69L430.28 10.69L430.28 10.69Q431.48 12.02 433.30 12.02L433.30 12.02L433.30 12.02Q434.31 12.02 435.25 11.49L435.25 11.49L435.25 11.49Q436.20 10.94 436.23 10.58L436.23 10.58L436.27 9.41L436.76 9.41L436.68 11.45L436.68 11.45Q436.61 11.49 436.48 11.57L436.48 11.57L436.48 11.57Q436.43 11.60 435.96 11.85L435.96 11.85L435.96 11.85Q435.59 12.05 435.14 12.23L435.14 12.23L435.14 12.23Q434.78 12.39 434.13 12.51L434.13 12.51L434.13 12.51Q433.52 12.63 432.95 12.64L432.95 12.64L432.95 12.64Q430.58 12.64 429.21 11.39L429.21 11.39L429.21 11.39Q427.88 10.14 427.88 8.02ZM444.81 12.41L444.79 11.87L444.96 11.87L444.96 11.87Q445.35 11.87 445.48 11.73L445.48 11.73L445.48 11.73Q445.61 11.57 445.94 10.83L445.94 10.83L446.85 8.82L447.43 7.53L447.43 7.53Q447.69 6.97 447.73 6.86L447.73 6.86L447.73 6.86Q447.80 6.70 447.85 6.60L447.85 6.60L447.85 6.60Q447.90 6.51 447.92 6.45L447.92 6.45L448.01 6.21L449.44 2.74L449.74 2.74L449.74 2.74Q450.59 4.98 452.78 10.25L452.78 10.25L452.78 10.25Q453.23 11.34 453.42 11.64L453.42 11.64L453.42 11.64Q453.56 11.87 454.00 11.87L454.00 11.87L454.21 11.87L454.19 12.41L451.00 12.41L451.01 11.87L451.43 11.87L451.43 11.87Q452.05 11.87 452.05 11.70L452.05 11.70L452.05 11.70Q452.05 11.63 451.91 11.27L451.91 11.27L450.87 8.72L447.62 8.72L446.52 11.18L446.52 11.18Q446.38 11.50 446.38 11.63L446.38 11.63L446.38 11.63Q446.38 11.79 446.48 11.83L446.48 11.83L446.48 11.83Q446.57 11.87 446.95 11.87L446.95 11.87L447.53 11.87L447.53 12.41L444.81 12.41ZM449.31 4.79L447.89 8.10L450.63 8.10L449.31 4.79ZM465.66 12.41L461.94 12.41L461.94 11.87L462.38 11.87L462.38 11.87Q462.75 11.87 462.81 11.81L462.81 11.81L462.81 11.81Q462.88 11.74 462.88 11.46L462.88 11.46L462.88 4.14L462.88 4.14Q462.88 3.81 462.80 3.72L462.80 3.72L462.80 3.72Q462.71 3.64 462.35 3.64L462.35 3.64L461.98 3.64L461.99 3.08L464.88 3.08L464.88 3.08Q466.03 3.08 466.68 3.19L466.68 3.19L466.68 3.19Q467.28 3.28 467.75 3.68L467.75 3.68L467.75 3.68Q468.94 4.64 468.94 6.19L468.94 6.19L468.94 6.19Q468.94 7.23 468.17 7.98L468.17 7.98L468.17 7.98Q467.39 8.74 465.99 8.73L465.99 8.73L465.99 8.73Q465.81 8.73 465.40 8.70L465.40 8.70L465.40 8.70Q465.29 8.69 464.86 8.62L464.86 8.62L464.86 8.62Q464.53 8.55 464.43 8.54L464.43 8.54L464.43 8.54Q464.14 8.47 464.13 8.46L464.13 8.46L464.01 8.44L464.01 11.46L464.01 11.46Q464.01 11.74 464.14 11.81L464.14 11.81L464.14 11.81Q464.25 11.87 464.97 11.87L464.97 11.87L465.66 11.87L465.66 12.41ZM464.01 4.28L464.01 8.02L464.01 8.02Q464.36 8.29 465.33 8.29L465.33 8.29L465.33 8.29Q466.46 8.29 467.04 7.75L467.04 7.75L467.04 7.75Q467.63 7.21 467.63 6.16L467.63 6.16L467.63 6.16Q467.63 4.98 466.72 4.31L466.72 4.31L466.72 4.31Q465.82 3.64 464.43 3.64L464.43 3.64L464.43 3.64Q464.18 3.64 464.10 3.75L464.10 3.75L464.10 3.75Q464.02 3.84 464.01 4.28L464.01 4.28ZM476.93 3.64L476.92 3.08L484.13 3.08L484.13 3.08Q484.14 4.14 484.20 5.28L484.20 5.28L483.65 5.30L483.65 5.30Q483.64 4.66 483.58 4.25L483.58 4.25L483.58 4.25Q483.54 3.89 483.49 3.80L483.49 3.80L483.49 3.80Q483.43 3.71 483.31 3.69L483.31 3.69L483.31 3.69Q483.22 3.68 482.63 3.68L482.63 3.68L480.25 3.68L480.25 3.68Q479.71 3.68 479.56 3.77L479.56 3.77L479.56 3.77Q479.44 3.86 479.44 4.33L479.44 4.33L479.44 6.28L479.44 6.28Q479.44 6.69 479.49 6.76L479.49 6.76L479.49 6.76Q479.56 6.84 479.90 6.84L479.90 6.84L482.02 6.84L482.02 6.84Q482.38 6.84 482.46 6.73L482.46 6.73L482.46 6.73Q482.54 6.63 482.55 6.14L482.55 6.14L482.55 5.61L483.06 5.63L483.06 8.97L482.55 8.97L482.55 8.24L482.55 8.24Q482.55 7.66 482.47 7.57L482.47 7.57L482.47 7.57Q482.39 7.46 482.04 7.46L482.04 7.46L479.94 7.46L479.94 7.46Q479.61 7.46 479.52 7.54L479.52 7.54L479.52 7.54Q479.44 7.63 479.44 7.89L479.44 7.89L479.44 11.20L479.44 11.20Q479.44 11.57 479.52 11.67L479.52 11.67L479.52 11.67Q479.61 11.77 479.88 11.77L479.88 11.77L479.88 11.77Q482.80 11.75 483.33 11.69L483.33 11.69L483.33 11.69Q483.85 11.63 483.93 11.38L483.93 11.38L483.94 11.36L483.94 11.35L484.17 10.17L484.65 10.25L484.30 12.41L477.20 12.41L477.20 11.87L477.57 11.87L477.57 11.87Q478.13 11.87 478.21 11.80L478.21 11.80L478.21 11.80Q478.30 11.72 478.30 11.33L478.30 11.33L478.30 4.24L478.30 4.24Q478.30 3.82 478.15 3.73L478.15 3.73L478.15 3.73Q477.98 3.64 477.33 3.64L477.33 3.64L476.93 3.64ZM493.32 11.85L493.32 11.85L493.32 11.85Q493.32 11.73 493.59 11.48L493.59 11.48L493.59 11.48Q493.86 11.22 494.03 11.22L494.03 11.22L494.03 11.22Q494.19 11.22 494.43 11.50L494.43 11.50L494.43 11.50Q494.67 11.79 494.67 11.89L494.67 11.89L494.67 11.89Q494.67 12.09 494.40 12.31L494.40 12.31L494.40 12.31Q494.14 12.54 493.97 12.54L493.97 12.54L493.97 12.54Q493.80 12.54 493.56 12.27L493.56 12.27L493.56 12.27Q493.32 12.01 493.32 11.85ZM493.32 7.53L493.32 7.53L493.32 7.53Q493.32 7.34 493.59 7.08L493.59 7.08L493.59 7.08Q493.83 6.84 493.98 6.84L493.98 6.84L493.98 6.84Q494.16 6.84 494.42 7.10L494.42 7.10L494.42 7.10Q494.67 7.35 494.67 7.49L494.67 7.49L494.67 7.49Q494.67 7.66 494.43 7.91L494.43 7.91L494.43 7.91Q494.18 8.18 494.01 8.17L494.01 8.17L494.01 8.17Q493.86 8.17 493.59 7.92L493.59 7.92L493.59 7.92Q493.32 7.66 493.32 7.53ZM513.15 8.02L513.15 8.02L513.15 8.02Q513.15 6.86 513.63 5.83L513.63 5.83L513.63 5.83Q514.09 4.85 514.84 4.27L514.84 4.27L514.84 4.27Q515.59 3.69 516.48 3.37L516.48 3.37L516.48 3.37Q517.38 3.05 518.22 3.05L518.22 3.05L518.22 3.05Q519.09 3.05 519.76 3.16L519.76 3.16L519.76 3.16Q520.39 3.26 520.68 3.37L520.68 3.37L520.68 3.37Q520.99 3.48 521.02 3.48L521.02 3.48L521.02 3.48Q521.19 3.48 521.21 3.41L521.21 3.41L521.21 3.41Q521.24 3.33 521.24 3.09L521.24 3.09L521.24 2.97L521.77 2.97L521.77 2.97Q521.81 4.30 521.94 5.64L521.94 5.64L521.44 5.65L521.44 5.65Q521.41 5.40 521.40 5.26L521.40 5.26L521.40 5.26Q521.40 5.20 521.39 5.13L521.39 5.13L521.39 5.13Q521.38 5.07 521.38 5.02L521.38 5.02L521.38 5.02Q521.37 4.98 521.37 4.95L521.37 4.95L521.37 4.95Q521.34 4.84 521.34 4.74L521.34 4.74L521.34 4.74Q521.34 4.68 521.30 4.59L521.30 4.59L521.30 4.59Q521.30 4.57 521.27 4.55L521.27 4.55L521.27 4.55Q521.24 4.52 521.24 4.50L521.24 4.50L521.24 4.50Q521.21 4.44 521.14 4.41L521.14 4.41L521.14 4.41Q521.10 4.38 521.08 4.37L521.08 4.37L521.08 4.37Q521.05 4.36 521.02 4.35L521.02 4.35L521.02 4.35Q521.01 4.35 520.98 4.33L520.98 4.33L520.98 4.33Q520.96 4.31 520.92 4.29L520.92 4.29L520.92 4.29Q520.88 4.27 520.84 4.25L520.84 4.25L520.84 4.25Q520.61 4.16 520.58 4.14L520.58 4.14L520.58 4.14Q520.24 3.96 519.59 3.83L519.59 3.83L519.59 3.83Q518.92 3.71 518.26 3.71L518.26 3.71L518.26 3.71Q516.54 3.71 515.44 4.84L515.44 4.84L515.44 4.84Q514.34 5.99 514.34 7.62L514.34 7.62L514.34 7.62Q514.34 9.35 515.56 10.69L515.56 10.69L515.56 10.69Q516.76 12.02 518.58 12.02L518.58 12.02L518.58 12.02Q519.59 12.02 520.53 11.49L520.53 11.49L520.53 11.49Q521.48 10.94 521.51 10.58L521.51 10.58L521.55 9.41L522.04 9.41L521.96 11.45L521.96 11.45Q521.89 11.49 521.76 11.57L521.76 11.57L521.76 11.57Q521.71 11.60 521.24 11.85L521.24 11.85L521.24 11.85Q520.86 12.05 520.42 12.23L520.42 12.23L520.42 12.23Q520.06 12.39 519.41 12.51L519.41 12.51L519.41 12.51Q518.80 12.63 518.23 12.64L518.23 12.64L518.23 12.64Q515.85 12.64 514.49 11.39L514.49 11.39L514.49 11.39Q513.15 10.14 513.15 8.02ZM530.46 7.83L530.46 7.83L530.46 7.83Q530.46 6.62 530.86 5.68L530.86 5.68L530.86 5.68Q531.28 4.72 531.97 4.12L531.97 4.12L531.97 4.12Q532.66 3.51 533.52 3.19L533.52 3.19L533.52 3.19Q534.36 2.88 535.31 2.88L535.31 2.88L535.31 2.88Q536.57 2.88 537.62 3.40L537.62 3.40L537.62 3.40Q538.70 3.93 539.41 5.07L539.41 5.07L539.41 5.07Q540.11 6.17 540.11 7.75L540.11 7.75L540.11 7.75Q540.11 8.70 539.81 9.54L539.81 9.54L539.81 9.54Q539.50 10.38 538.89 11.10L538.89 11.10L538.89 11.10Q538.29 11.81 537.35 12.22L537.35 12.22L537.35 12.22Q536.39 12.63 535.20 12.64L535.20 12.64L535.20 12.64Q534.06 12.64 533.13 12.23L533.13 12.23L533.13 12.23Q532.19 11.83 531.63 11.14L531.63 11.14L531.63 11.14Q531.06 10.45 530.76 9.60L530.76 9.60L530.76 9.60Q530.46 8.72 530.46 7.83ZM531.71 7.38L531.71 7.38L531.71 7.38Q531.71 8.52 532.14 9.60L532.14 9.60L532.14 9.60Q532.55 10.64 533.48 11.33L533.48 11.33L533.48 11.33Q534.39 12.03 535.58 12.04L535.58 12.04L535.58 12.04Q536.95 12.04 537.89 11.01L537.89 11.01L537.89 11.01Q538.84 9.97 538.84 8.10L538.84 8.10L538.84 8.10Q538.84 5.99 537.67 4.72L537.67 4.72L537.67 4.72Q536.53 3.46 535.01 3.45L535.01 3.45L535.01 3.45Q534.50 3.45 533.95 3.65L533.95 3.65L533.95 3.65Q533.41 3.85 532.90 4.25L532.90 4.25L532.90 4.25Q532.36 4.68 532.03 5.48L532.03 5.48L532.03 5.48Q531.71 6.27 531.71 7.38ZM548.27 3.64L548.23 3.08L552.01 3.08L552.01 3.08Q553.33 3.08 554.20 3.19L554.20 3.19L554.20 3.19Q555.02 3.29 555.71 3.69L555.71 3.69L555.71 3.69Q556.66 4.27 557.16 5.24L557.16 5.24L557.16 5.24Q557.66 6.21 557.66 7.39L557.66 7.39L557.66 7.39Q557.66 8.05 557.51 8.65L557.51 8.65L557.51 8.65Q557.35 9.29 556.96 9.98L556.96 9.98L556.96 9.98Q556.53 10.73 555.97 11.21L555.97 11.21L555.97 11.21Q555.34 11.76 554.37 12.08L554.37 12.08L554.37 12.08Q553.37 12.41 552.10 12.41L552.10 12.41L548.48 12.41L548.47 11.87L548.84 11.87L548.84 11.87Q549.36 11.87 549.47 11.79L549.47 11.79L549.47 11.79Q549.58 11.70 549.58 11.25L549.58 11.25L549.58 4.14L549.58 4.14Q549.58 3.77 549.48 3.71L549.48 3.71L549.48 3.71Q549.37 3.64 548.86 3.64L548.86 3.64L548.27 3.64ZM550.71 4.39L550.71 11.22L550.71 11.22Q550.71 11.67 550.87 11.77L550.87 11.77L550.87 11.77Q551.03 11.87 551.90 11.87L551.90 11.87L551.90 11.87Q552.95 11.87 553.75 11.61L553.75 11.61L553.75 11.61Q554.60 11.35 555.04 10.99L555.04 10.99L555.04 10.99Q555.53 10.58 555.83 10.05L555.83 10.05L555.83 10.05Q556.14 9.52 556.27 8.96L556.27 8.96L556.27 8.96Q556.39 8.41 556.39 7.82L556.39 7.82L556.39 7.82Q556.39 7.03 556.12 6.34L556.12 6.34L556.12 6.34Q555.86 5.65 555.33 5.05L555.33 5.05L555.33 5.05Q554.80 4.46 553.89 4.09L553.89 4.09L553.89 4.09Q552.97 3.73 551.80 3.73L551.80 3.73L551.28 3.73L551.28 3.73Q550.92 3.73 550.82 3.85L550.82 3.85L550.82 3.85Q550.71 3.99 550.71 4.39L550.71 4.39ZM565.64 3.64L565.63 3.08L572.84 3.08L572.84 3.08Q572.85 4.14 572.91 5.28L572.91 5.28L572.36 5.30L572.36 5.30Q572.35 4.66 572.29 4.25L572.29 4.25L572.29 4.25Q572.25 3.89 572.20 3.80L572.20 3.80L572.20 3.80Q572.14 3.71 572.02 3.69L572.02 3.69L572.02 3.69Q571.93 3.68 571.34 3.68L571.34 3.68L568.96 3.68L568.96 3.68Q568.42 3.68 568.27 3.77L568.27 3.77L568.27 3.77Q568.15 3.86 568.15 4.33L568.15 4.33L568.15 6.28L568.15 6.28Q568.15 6.69 568.20 6.76L568.20 6.76L568.20 6.76Q568.27 6.84 568.61 6.84L568.61 6.84L570.73 6.84L570.73 6.84Q571.09 6.84 571.17 6.73L571.17 6.73L571.17 6.73Q571.25 6.63 571.26 6.14L571.26 6.14L571.26 5.61L571.77 5.63L571.77 8.97L571.26 8.97L571.26 8.24L571.26 8.24Q571.26 7.66 571.18 7.57L571.18 7.57L571.18 7.57Q571.10 7.46 570.75 7.46L570.75 7.46L568.65 7.46L568.65 7.46Q568.32 7.46 568.23 7.54L568.23 7.54L568.23 7.54Q568.15 7.63 568.15 7.89L568.15 7.89L568.15 11.20L568.15 11.20Q568.15 11.57 568.23 11.67L568.23 11.67L568.23 11.67Q568.32 11.77 568.59 11.77L568.59 11.77L568.59 11.77Q571.51 11.75 572.04 11.69L572.04 11.69L572.04 11.69Q572.56 11.63 572.64 11.38L572.64 11.38L572.65 11.36L572.65 11.35L572.88 10.17L573.36 10.25L573.01 12.41L565.91 12.41L565.91 11.87L566.28 11.87L566.28 11.87Q566.84 11.87 566.92 11.80L566.92 11.80L566.92 11.80Q567.01 11.72 567.01 11.33L567.01 11.33L567.01 4.24L567.01 4.24Q567.01 3.82 566.86 3.73L566.86 3.73L566.86 3.73Q566.69 3.64 566.04 3.64L566.04 3.64L565.64 3.64ZM581.35 14.26L581.35 14.26L581.35 14.26Q581.35 14.18 581.50 14.07L581.50 14.07L581.50 14.07Q581.53 14.04 581.83 13.86L581.83 13.86L581.83 13.86Q582.03 13.73 582.18 13.48L582.18 13.48L582.18 13.48Q582.33 13.21 582.33 12.87L582.33 12.87L582.33 12.87Q582.33 12.65 582.23 12.48L582.23 12.48L582.23 12.48Q582.15 12.33 582.02 12.28L582.02 12.28L582.02 12.28Q581.94 12.24 581.82 12.15L581.82 12.15L581.82 12.15Q581.72 12.08 581.72 12.00L581.72 12.00L581.72 12.00Q581.72 11.84 582.00 11.59L582.00 11.59L582.00 11.59Q582.29 11.33 582.37 11.33L582.37 11.33L582.37 11.33Q582.39 11.33 582.59 11.39L582.59 11.39L582.59 11.39Q582.72 11.43 582.94 11.72L582.94 11.72L582.94 11.72Q583.15 12.00 583.15 12.44L583.15 12.44L583.15 12.44Q583.15 12.86 582.97 13.31L582.97 13.31L582.97 13.31Q582.79 13.76 582.52 14.03L582.52 14.03L582.52 14.03Q582.09 14.46 581.53 14.46L581.53 14.46L581.53 14.46Q581.35 14.46 581.35 14.26ZM601.30 8.02L601.30 8.02L601.30 8.02Q601.30 6.86 601.77 5.83L601.77 5.83L601.77 5.83Q602.24 4.85 602.99 4.27L602.99 4.27L602.99 4.27Q603.74 3.69 604.63 3.37L604.63 3.37L604.63 3.37Q605.53 3.05 606.37 3.05L606.37 3.05L606.37 3.05Q607.24 3.05 607.91 3.16L607.91 3.16L607.91 3.16Q608.54 3.26 608.83 3.37L608.83 3.37L608.83 3.37Q609.14 3.48 609.17 3.48L609.17 3.48L609.17 3.48Q609.34 3.48 609.36 3.41L609.36 3.41L609.36 3.41Q609.39 3.33 609.39 3.09L609.39 3.09L609.39 2.97L609.92 2.97L609.92 2.97Q609.96 4.30 610.09 5.64L610.09 5.64L609.59 5.65L609.59 5.65Q609.56 5.40 609.55 5.26L609.55 5.26L609.55 5.26Q609.55 5.20 609.54 5.13L609.54 5.13L609.54 5.13Q609.53 5.07 609.53 5.02L609.53 5.02L609.53 5.02Q609.52 4.98 609.52 4.95L609.52 4.95L609.52 4.95Q609.49 4.84 609.49 4.74L609.49 4.74L609.49 4.74Q609.49 4.68 609.45 4.59L609.45 4.59L609.45 4.59Q609.45 4.57 609.42 4.55L609.42 4.55L609.42 4.55Q609.39 4.52 609.39 4.50L609.39 4.50L609.39 4.50Q609.36 4.44 609.29 4.41L609.29 4.41L609.29 4.41Q609.25 4.38 609.23 4.37L609.23 4.37L609.23 4.37Q609.20 4.36 609.17 4.35L609.17 4.35L609.17 4.35Q609.16 4.35 609.13 4.33L609.13 4.33L609.13 4.33Q609.11 4.31 609.07 4.29L609.07 4.29L609.07 4.29Q609.03 4.27 608.99 4.25L608.99 4.25L608.99 4.25Q608.76 4.16 608.73 4.14L608.73 4.14L608.73 4.14Q608.38 3.96 607.74 3.83L607.74 3.83L607.74 3.83Q607.07 3.71 606.41 3.71L606.41 3.71L606.41 3.71Q604.69 3.71 603.59 4.84L603.59 4.84L603.59 4.84Q602.49 5.99 602.49 7.62L602.49 7.62L602.49 7.62Q602.49 9.35 603.71 10.69L603.71 10.69L603.71 10.69Q604.91 12.02 606.73 12.02L606.73 12.02L606.73 12.02Q607.74 12.02 608.68 11.49L608.68 11.49L608.68 11.49Q609.63 10.94 609.66 10.58L609.66 10.58L609.70 9.41L610.19 9.41L610.11 11.45L610.11 11.45Q610.04 11.49 609.91 11.57L609.91 11.57L609.91 11.57Q609.85 11.60 609.39 11.85L609.39 11.85L609.39 11.85Q609.01 12.05 608.57 12.23L608.57 12.23L608.57 12.23Q608.21 12.39 607.56 12.51L607.56 12.51L607.56 12.51Q606.95 12.63 606.38 12.64L606.38 12.64L606.38 12.64Q604.00 12.64 602.64 11.39L602.64 11.39L602.64 11.39Q601.30 10.14 601.30 8.02ZM618.71 3.64L618.22 3.64L618.24 3.08L621.82 3.08L621.82 3.64L621.19 3.64L621.19 3.64Q620.81 3.64 620.70 3.72L620.70 3.72L620.70 3.72Q620.59 3.80 620.59 4.16L620.59 4.16L620.59 11.22L620.59 11.22Q620.59 11.57 620.67 11.67L620.67 11.67L620.67 11.67Q620.76 11.77 621.05 11.77L621.05 11.77L621.05 11.77Q623.92 11.74 624.58 11.63L624.58 11.63L624.58 11.63Q624.79 11.61 624.87 11.39L624.87 11.39L624.87 11.39Q624.96 11.17 625.15 10.05L625.15 10.05L625.65 10.08L625.18 12.41L618.42 12.41L618.41 11.87L618.80 11.87L618.80 11.87Q619.30 11.87 619.37 11.80L619.37 11.80L619.37 11.80Q619.45 11.72 619.46 11.33L619.46 11.33L619.46 4.09L619.46 4.09Q619.46 3.80 619.30 3.72L619.30 3.72L619.30 3.72Q619.15 3.64 618.71 3.64L618.71 3.64ZM633.76 7.83L633.76 7.83L633.76 7.83Q633.76 6.62 634.16 5.68L634.16 5.68L634.16 5.68Q634.58 4.72 635.27 4.12L635.27 4.12L635.27 4.12Q635.96 3.51 636.82 3.19L636.82 3.19L636.82 3.19Q637.66 2.88 638.61 2.88L638.61 2.88L638.61 2.88Q639.87 2.88 640.92 3.40L640.92 3.40L640.92 3.40Q642.00 3.93 642.71 5.07L642.71 5.07L642.71 5.07Q643.41 6.17 643.42 7.75L643.42 7.75L643.42 7.75Q643.42 8.70 643.11 9.54L643.11 9.54L643.11 9.54Q642.80 10.38 642.20 11.10L642.20 11.10L642.20 11.10Q641.59 11.81 640.66 12.22L640.66 12.22L640.66 12.22Q639.69 12.63 638.50 12.64L638.50 12.64L638.50 12.64Q637.37 12.64 636.43 12.23L636.43 12.23L636.43 12.23Q635.50 11.83 634.94 11.14L634.94 11.14L634.94 11.14Q634.36 10.45 634.07 9.60L634.07 9.60L634.07 9.60Q633.76 8.72 633.76 7.83ZM635.02 7.38L635.02 7.38L635.02 7.38Q635.02 8.52 635.45 9.60L635.45 9.60L635.45 9.60Q635.85 10.64 636.78 11.33L636.78 11.33L636.78 11.33Q637.69 12.03 638.88 12.04L638.88 12.04L638.88 12.04Q640.25 12.04 641.19 11.01L641.19 11.01L641.19 11.01Q642.14 9.97 642.14 8.10L642.14 8.10L642.14 8.10Q642.14 5.99 640.98 4.72L640.98 4.72L640.98 4.72Q639.83 3.46 638.32 3.45L638.32 3.45L638.32 3.45Q637.80 3.45 637.26 3.65L637.26 3.65L637.26 3.65Q636.71 3.85 636.21 4.25L636.21 4.25L636.21 4.25Q635.66 4.68 635.34 5.48L635.34 5.48L635.34 5.48Q635.02 6.27 635.02 7.38ZM651.92 3.64L651.53 3.64L651.53 3.08L654.90 3.08L654.91 3.64L654.38 3.64L654.38 3.64Q653.95 3.64 653.79 3.73L653.79 3.73L653.79 3.73Q653.62 3.83 653.62 4.16L653.62 4.16L653.62 9.33L653.62 9.33Q653.62 9.63 653.65 9.78L653.65 9.78L653.65 9.78Q653.69 10.01 653.86 10.41L653.86 10.41L653.86 10.41Q654.03 10.80 654.32 11.09L654.32 11.09L654.32 11.09Q654.63 11.40 655.19 11.63L655.19 11.63L655.19 11.63Q655.76 11.85 656.54 11.85L656.54 11.85L656.54 11.85Q657.40 11.85 657.95 11.67L657.95 11.67L657.95 11.67Q658.51 11.48 658.81 11.22L658.81 11.22L658.81 11.22Q659.12 10.96 659.26 10.49L659.26 10.49L659.26 10.49Q659.44 9.95 659.44 9.66L659.44 9.66L659.44 9.66Q659.47 9.18 659.48 8.67L659.48 8.67L659.48 4.14L659.48 4.14Q659.48 3.81 659.33 3.72L659.33 3.72L659.33 3.72Q659.18 3.64 658.70 3.64L658.70 3.64L658.21 3.64L658.24 3.08L660.87 3.08L660.87 3.64L660.68 3.64L660.68 3.64Q660.36 3.64 660.25 3.75L660.25 3.75L660.25 3.75Q660.13 3.86 660.13 4.25L660.13 4.25L660.13 9.22L660.13 9.22Q660.13 12.67 656.54 12.67L656.54 12.67L656.54 12.67Q654.38 12.67 653.43 11.76L653.43 11.76L653.43 11.76Q652.49 10.86 652.49 9.41L652.49 9.41L652.49 4.14L652.49 4.14Q652.49 3.81 652.39 3.72L652.39 3.72L652.39 3.72Q652.28 3.64 651.92 3.64L651.92 3.64ZM668.65 3.64L668.61 3.08L672.39 3.08L672.39 3.08Q673.71 3.08 674.58 3.19L674.58 3.19L674.58 3.19Q675.40 3.29 676.09 3.69L676.09 3.69L676.09 3.69Q677.04 4.27 677.54 5.24L677.54 5.24L677.54 5.24Q678.04 6.21 678.04 7.39L678.04 7.39L678.04 7.39Q678.04 8.05 677.89 8.65L677.89 8.65L677.89 8.65Q677.74 9.29 677.35 9.98L677.35 9.98L677.35 9.98Q676.92 10.73 676.35 11.21L676.35 11.21L676.35 11.21Q675.73 11.76 674.75 12.08L674.75 12.08L674.75 12.08Q673.75 12.41 672.48 12.41L672.48 12.41L668.86 12.41L668.85 11.87L669.22 11.87L669.22 11.87Q669.74 11.87 669.85 11.79L669.85 11.79L669.85 11.79Q669.96 11.70 669.96 11.25L669.96 11.25L669.96 4.14L669.96 4.14Q669.96 3.77 669.86 3.71L669.86 3.71L669.86 3.71Q669.75 3.64 669.24 3.64L669.24 3.64L668.65 3.64ZM671.09 4.39L671.09 11.22L671.09 11.22Q671.09 11.67 671.25 11.77L671.25 11.77L671.25 11.77Q671.41 11.87 672.28 11.87L672.28 11.87L672.28 11.87Q673.33 11.87 674.13 11.61L674.13 11.61L674.13 11.61Q674.98 11.35 675.42 10.99L675.42 10.99L675.42 10.99Q675.91 10.58 676.21 10.05L676.21 10.05L676.21 10.05Q676.52 9.52 676.65 8.96L676.65 8.96L676.65 8.96Q676.77 8.41 676.77 7.82L676.77 7.82L676.77 7.82Q676.77 7.03 676.50 6.34L676.50 6.34L676.50 6.34Q676.24 5.65 675.71 5.05L675.71 5.05L675.71 5.05Q675.18 4.46 674.27 4.09L674.27 4.09L674.27 4.09Q673.35 3.73 672.18 3.73L672.18 3.73L671.67 3.73L671.67 3.73Q671.30 3.73 671.20 3.85L671.20 3.85L671.20 3.85Q671.09 3.99 671.09 4.39L671.09 4.39ZM686.12 14.26L686.12 14.26L686.12 14.26Q686.12 14.18 686.27 14.07L686.27 14.07L686.27 14.07Q686.30 14.04 686.61 13.86L686.61 13.86L686.61 13.86Q686.80 13.73 686.95 13.48L686.95 13.48L686.95 13.48Q687.11 13.21 687.10 12.87L687.10 12.87L687.10 12.87Q687.10 12.65 687.00 12.48L687.00 12.48L687.00 12.48Q686.92 12.33 686.79 12.28L686.79 12.28L686.79 12.28Q686.71 12.24 686.59 12.15L686.59 12.15L686.59 12.15Q686.50 12.08 686.50 12.00L686.50 12.00L686.50 12.00Q686.50 11.84 686.78 11.59L686.78 11.59L686.78 11.59Q687.06 11.33 687.14 11.33L687.14 11.33L687.14 11.33Q687.17 11.33 687.37 11.39L687.37 11.39L687.37 11.39Q687.49 11.43 687.72 11.72L687.72 11.72L687.72 11.72Q687.93 12.00 687.93 12.44L687.93 12.44L687.93 12.44Q687.93 12.86 687.75 13.31L687.75 13.31L687.75 13.31Q687.57 13.76 687.30 14.03L687.30 14.03L687.30 14.03Q686.87 14.46 686.30 14.46L686.30 14.46L686.30 14.46Q686.12 14.46 686.12 14.26ZM705.74 3.64L705.69 3.08L709.47 3.08L709.47 3.08Q710.79 3.08 711.66 3.19L711.66 3.19L711.66 3.19Q712.48 3.29 713.17 3.69L713.17 3.69L713.17 3.69Q714.12 4.27 714.63 5.24L714.63 5.24L714.63 5.24Q715.12 6.21 715.12 7.39L715.12 7.39L715.12 7.39Q715.12 8.05 714.98 8.65L714.98 8.65L714.98 8.65Q714.82 9.29 714.43 9.98L714.43 9.98L714.43 9.98Q714 10.73 713.44 11.21L713.44 11.21L713.44 11.21Q712.81 11.76 711.84 12.08L711.84 12.08L711.84 12.08Q710.83 12.41 709.56 12.41L709.56 12.41L705.95 12.41L705.93 11.87L706.31 11.87L706.31 11.87Q706.83 11.87 706.93 11.79L706.93 11.79L706.93 11.79Q707.04 11.70 707.04 11.25L707.04 11.25L707.04 4.14L707.04 4.14Q707.04 3.77 706.95 3.71L706.95 3.71L706.95 3.71Q706.84 3.64 706.32 3.64L706.32 3.64L705.74 3.64ZM708.18 4.39L708.18 11.22L708.18 11.22Q708.18 11.67 708.34 11.77L708.34 11.77L708.34 11.77Q708.50 11.87 709.37 11.87L709.37 11.87L709.37 11.87Q710.42 11.87 711.21 11.61L711.21 11.61L711.21 11.61Q712.07 11.35 712.50 10.99L712.50 10.99L712.50 10.99Q713.00 10.58 713.30 10.05L713.30 10.05L713.30 10.05Q713.60 9.52 713.73 8.96L713.73 8.96L713.73 8.96Q713.86 8.41 713.86 7.82L713.86 7.82L713.86 7.82Q713.86 7.03 713.59 6.34L713.59 6.34L713.59 6.34Q713.32 5.65 712.80 5.05L712.80 5.05L712.80 5.05Q712.26 4.46 711.35 4.09L711.35 4.09L711.35 4.09Q710.43 3.73 709.27 3.73L709.27 3.73L708.75 3.73L708.75 3.73Q708.39 3.73 708.29 3.85L708.29 3.85L708.29 3.85Q708.18 3.99 708.18 4.39L708.18 4.39ZM723.11 3.64L723.09 3.08L730.30 3.08L730.30 3.08Q730.32 4.14 730.37 5.28L730.37 5.28L729.83 5.30L729.83 5.30Q729.81 4.66 729.76 4.25L729.76 4.25L729.76 4.25Q729.72 3.89 729.66 3.80L729.66 3.80L729.66 3.80Q729.61 3.71 729.49 3.69L729.49 3.69L729.49 3.69Q729.39 3.68 728.81 3.68L728.81 3.68L726.43 3.68L726.43 3.68Q725.88 3.68 725.74 3.77L725.74 3.77L725.74 3.77Q725.61 3.86 725.61 4.33L725.61 4.33L725.61 6.28L725.61 6.28Q725.61 6.69 725.67 6.76L725.67 6.76L725.67 6.76Q725.74 6.84 726.08 6.84L726.08 6.84L728.19 6.84L728.19 6.84Q728.55 6.84 728.64 6.73L728.64 6.73L728.64 6.73Q728.72 6.63 728.72 6.14L728.72 6.14L728.72 5.61L729.24 5.63L729.24 8.97L728.72 8.97L728.72 8.24L728.72 8.24Q728.72 7.66 728.65 7.57L728.65 7.57L728.65 7.57Q728.57 7.46 728.22 7.46L728.22 7.46L726.12 7.46L726.12 7.46Q725.79 7.46 725.70 7.54L725.70 7.54L725.70 7.54Q725.61 7.63 725.61 7.89L725.61 7.89L725.61 11.20L725.61 11.20Q725.61 11.57 725.70 11.67L725.70 11.67L725.70 11.67Q725.79 11.77 726.06 11.77L726.06 11.77L726.06 11.77Q728.98 11.75 729.50 11.69L729.50 11.69L729.50 11.69Q730.02 11.63 730.11 11.38L730.11 11.38L730.11 11.36L730.12 11.35L730.34 10.17L730.82 10.25L730.47 12.41L723.37 12.41L723.37 11.87L723.74 11.87L723.74 11.87Q724.30 11.87 724.38 11.80L724.38 11.80L724.38 11.80Q724.48 11.72 724.48 11.33L724.48 11.33L724.48 4.24L724.48 4.24Q724.48 3.82 724.33 3.73L724.33 3.73L724.33 3.73Q724.16 3.64 723.50 3.64L723.50 3.64L723.11 3.64ZM739.19 3.64L738.70 3.64L738.70 3.08L742.21 3.08L742.20 3.64L741.46 3.64L741.46 3.64Q741.13 3.64 741.13 3.82L741.13 3.82L741.13 3.82Q741.13 3.98 741.32 4.48L741.32 4.48L743.92 10.94L746.86 4.18L746.86 4.18Q746.93 3.97 746.94 3.92L746.94 3.92L746.94 3.92Q746.94 3.79 746.84 3.74L746.84 3.74L746.84 3.74Q746.74 3.68 746.59 3.65L746.59 3.65L746.59 3.65Q746.51 3.64 746.25 3.64L746.25 3.64L745.80 3.64L745.77 3.08L748.61 3.08L748.58 3.64L748.18 3.64L748.18 3.64Q747.86 3.64 747.70 3.83L747.70 3.83L747.70 3.83Q747.62 3.93 747.15 4.94L747.15 4.94L747.15 4.94Q746.94 5.46 746.87 5.57L746.87 5.57L743.74 12.63L743.50 12.63L740.26 4.73L740.26 4.73Q739.94 3.93 739.79 3.79L739.79 3.79L739.79 3.79Q739.63 3.63 739.19 3.64L739.19 3.64ZM756.73 7.83L756.73 7.83L756.73 7.83Q756.73 6.62 757.13 5.68L757.13 5.68L757.13 5.68Q757.55 4.72 758.24 4.12L758.24 4.12L758.24 4.12Q758.93 3.51 759.79 3.19L759.79 3.19L759.79 3.19Q760.63 2.88 761.58 2.88L761.58 2.88L761.58 2.88Q762.84 2.88 763.90 3.40L763.90 3.40L763.90 3.40Q764.98 3.93 765.69 5.07L765.69 5.07L765.69 5.07Q766.38 6.17 766.39 7.75L766.39 7.75L766.39 7.75Q766.39 8.70 766.08 9.54L766.08 9.54L766.08 9.54Q765.78 10.38 765.17 11.10L765.17 11.10L765.17 11.10Q764.57 11.81 763.63 12.22L763.63 12.22L763.63 12.22Q762.67 12.63 761.48 12.64L761.48 12.64L761.48 12.64Q760.34 12.64 759.40 12.23L759.40 12.23L759.40 12.23Q758.47 11.83 757.91 11.14L757.91 11.14L757.91 11.14Q757.33 10.45 757.04 9.60L757.04 9.60L757.04 9.60Q756.73 8.72 756.73 7.83ZM757.99 7.38L757.99 7.38L757.99 7.38Q757.99 8.52 758.42 9.60L758.42 9.60L758.42 9.60Q758.82 10.64 759.75 11.33L759.75 11.33L759.75 11.33Q760.66 12.03 761.85 12.04L761.85 12.04L761.85 12.04Q763.23 12.04 764.16 11.01L764.16 11.01L764.16 11.01Q765.11 9.97 765.11 8.10L765.11 8.10L765.11 8.10Q765.11 5.99 763.95 4.72L763.95 4.72L763.95 4.72Q762.80 3.46 761.29 3.45L761.29 3.45L761.29 3.45Q760.77 3.45 760.23 3.65L760.23 3.65L760.23 3.65Q759.68 3.85 759.18 4.25L759.18 4.25L759.18 4.25Q758.63 4.68 758.31 5.48L758.31 5.48L758.31 5.48Q757.99 6.27 757.99 7.38ZM778.23 12.41L774.50 12.41L774.50 11.87L774.94 11.87L774.94 11.87Q775.32 11.87 775.37 11.81L775.37 11.81L775.37 11.81Q775.44 11.74 775.45 11.46L775.45 11.46L775.45 4.14L775.45 4.14Q775.45 3.81 775.36 3.72L775.36 3.72L775.36 3.72Q775.28 3.64 774.92 3.64L774.92 3.64L774.55 3.64L774.56 3.08L777.44 3.08L777.44 3.08Q778.59 3.08 779.24 3.19L779.24 3.19L779.24 3.19Q779.84 3.28 780.32 3.68L780.32 3.68L780.32 3.68Q781.50 4.64 781.50 6.19L781.50 6.19L781.50 6.19Q781.50 7.23 780.74 7.98L780.74 7.98L780.74 7.98Q779.96 8.74 778.55 8.73L778.55 8.73L778.55 8.73Q778.38 8.73 777.96 8.70L777.96 8.70L777.96 8.70Q777.85 8.69 777.43 8.62L777.43 8.62L777.43 8.62Q777.10 8.55 777 8.54L777 8.54L777 8.54Q776.71 8.47 776.69 8.46L776.69 8.46L776.58 8.44L776.58 11.46L776.58 11.46Q776.58 11.74 776.71 11.81L776.71 11.81L776.71 11.81Q776.82 11.87 777.53 11.87L777.53 11.87L778.23 11.87L778.23 12.41ZM776.58 4.28L776.58 8.02L776.58 8.02Q776.92 8.29 777.90 8.29L777.90 8.29L777.90 8.29Q779.03 8.29 779.60 7.75L779.60 7.75L779.60 7.75Q780.19 7.21 780.19 6.16L780.19 6.16L780.19 6.16Q780.19 4.98 779.28 4.31L779.28 4.31L779.28 4.31Q778.39 3.64 777 3.64L777 3.64L777 3.64Q776.75 3.64 776.67 3.75L776.67 3.75L776.67 3.75Q776.58 3.84 776.58 4.28L776.58 4.28ZM789.46 10.04L789.46 10.04L789.95 9.98L790.13 10.85L790.13 10.85Q790.24 11.33 790.31 11.41L790.31 11.41L790.31 11.41Q790.38 11.49 790.79 11.64L790.79 11.64L790.79 11.64Q791.63 11.95 792.52 11.95L792.52 11.95L792.52 11.95Q793.31 11.95 793.85 11.49L793.85 11.49L793.85 11.49Q794.38 11.04 794.38 10.26L794.38 10.26L794.38 10.26Q794.38 9.65 793.93 9.21L793.93 9.21L793.93 9.21Q793.45 8.76 792.59 8.30L792.59 8.30L792.02 7.98L792.02 7.98Q791.27 7.55 791.04 7.36L791.04 7.36L791.04 7.36Q790.68 7.08 790.37 6.59L790.37 6.59L790.37 6.59Q790.06 6.10 790.06 5.46L790.06 5.46L790.06 5.46Q790.06 4.39 790.90 3.68L790.90 3.68L790.90 3.68Q791.74 2.97 792.85 2.97L792.85 2.97L792.85 2.97Q793.13 2.97 793.47 3.04L793.47 3.04L793.47 3.04Q793.67 3.08 794.01 3.17L794.01 3.17L794.25 3.25L794.25 3.25Q794.34 3.25 794.38 3.16L794.38 3.16L794.38 3.16Q794.44 3.05 794.44 2.98L794.44 2.98L794.45 2.88L794.93 2.85L795.14 5.41L794.64 5.43L794.51 4.18L794.51 4.18Q793.77 3.62 792.61 3.62L792.61 3.62L792.61 3.62Q791.96 3.62 791.46 4.05L791.46 4.05L791.46 4.05Q790.98 4.47 790.98 5.12L790.98 5.12L790.98 5.12Q790.98 5.72 791.43 6.17L791.43 6.17L791.43 6.17Q791.86 6.60 792.73 7.08L792.73 7.08L793.50 7.50L793.50 7.50Q794.45 8.03 794.99 8.59L794.99 8.59L794.99 8.59Q795.52 9.15 795.52 9.92L795.52 9.92L795.52 9.92Q795.52 10.99 794.66 11.76L794.66 11.76L794.66 11.76Q793.80 12.54 792.34 12.54L792.34 12.54L792.34 12.54Q791.78 12.54 791.28 12.41L791.28 12.41L791.28 12.41Q790.77 12.29 790.72 12.29L790.72 12.29L790.72 12.29Q790.47 12.29 790.47 12.58L790.47 12.58L790.48 12.76L790.00 12.80L790.00 12.80Q789.94 12.41 789.46 10.04Z"></path></g></svg>